<?xml version="1.0" encoding="UTF-8"?>
<svg version="1.1" xmlns="http://www.w3.org/2000/svg" width="1024" height="1024">
<path d="M0 0 C1.35674968 0.65108574 2.71351992 1.30212866 4.0703125 1.953125 C32.72277134 15.86366558 59.03658622 32.98006912 83 54 C83.68578125 54.58652344 84.3715625 55.17304688 85.078125 55.77734375 C94.59012098 63.95046635 103.96675048 72.35202696 112 82 C113.24757871 83.37719728 114.49774881 84.7520499 115.75 86.125 C120.67725645 91.65500822 125.18280242 97.50338944 129.71337891 103.35791016 C130.88509331 104.85334679 132.0874841 106.32461862 133.29296875 107.79296875 C133.93878906 108.58316406 134.58460938 109.37335938 135.25 110.1875 C135.81203125 110.86167969 136.3740625 111.53585937 136.953125 112.23046875 C137.29859375 112.81441406 137.6440625 113.39835938 138 114 C137.67 114.99 137.34 115.98 137 117 C136.21238281 116.95359375 135.42476562 116.9071875 134.61328125 116.859375 C125.42092114 116.55477609 116.19998824 117.51012694 108.375 122.76171875 C107.59125 123.17035156 106.8075 123.57898438 106 124 C102.79212025 122.84302044 101.05652451 121.18466367 98.96875 118.54296875 C98.41147217 117.84880859 97.85419434 117.15464844 97.2800293 116.43945312 C96.69261963 115.69630859 96.10520996 114.95316406 95.5 114.1875 C89.28930459 106.48900342 82.83472796 99.14717267 76 92 C75.22140625 91.18015625 74.4428125 90.3603125 73.640625 89.515625 C68.99176374 84.73488115 64.06562315 80.46434158 58.859375 76.30078125 C56.00366655 74.00295027 53.22332687 71.63180501 50.4375 69.25 C3.32112726 30.14702569 -57.63918356 3.85369795 -119 0 C-119.82886719 -0.06026367 -120.65773438 -0.12052734 -121.51171875 -0.18261719 C-152.49857942 -3.53645529 -152.49857942 -3.53645529 -182 2 C-183.93221188 2.16635543 -185.86809583 2.29094748 -187.8046875 2.39453125 C-194.75270956 2.88809094 -201.34622388 4.12453587 -208.125 5.6875 C-209.30078613 5.9551416 -210.47657227 6.2227832 -211.68798828 6.49853516 C-259.7894338 17.70491805 -314.00558652 41.46018074 -348.66796875 77.74609375 C-350 79 -350 79 -352 79 C-352 79.66 -352 80.32 -352 81 C-353.328125 82.3046875 -353.328125 82.3046875 -355.25 83.875 C-364.02373431 91.35984944 -371.91920616 99.50232474 -378.96484375 108.625 C-384.1747718 114.70491603 -384.1747718 114.70491603 -387.91407776 115.30944824 C-390.22333168 115.36643639 -392.49402542 115.29365438 -394.80078125 115.171875 C-395.63715622 115.14401917 -396.47353119 115.11616333 -397.33525085 115.08746338 C-399.99547693 114.99440729 -402.65348909 114.87262371 -405.3125 114.75 C-407.12037189 114.68169291 -408.92831584 114.61526544 -410.73632812 114.55078125 C-415.158683 114.38895274 -419.57927581 114.20135935 -424 114 C-420.11197689 107.9543087 -415.97657404 102.27006877 -411.375 96.75 C-410.77179932 96.02200195 -410.16859863 95.29400391 -409.54711914 94.54394531 C-402.41083946 85.99873421 -394.89659724 77.8477019 -387 70 C-386.05519632 69.04505502 -385.11121792 68.08929298 -384.16796875 67.1328125 C-378.62291584 61.52684523 -373.04500728 56.07146678 -367 51 C-365.75089844 49.9171875 -365.75089844 49.9171875 -364.4765625 48.8125 C-338.85421735 26.91065976 -309.60390305 9.90143393 -279 -4 C-277.95223389 -4.48098145 -277.95223389 -4.48098145 -276.88330078 -4.97167969 C-191.31662426 -43.8059496 -84.02040049 -41.15129111 0 0 Z " fill="#2A64B5" transform="translate(637,350)"/>
<path d="M0 0 C10.35379608 -0.06980407 20.7075353 -0.12296473 31.06151962 -0.15543652 C35.87036254 -0.17102884 40.67904333 -0.19214825 45.48779297 -0.22631836 C50.13678815 -0.25914295 54.78562832 -0.27690127 59.43473053 -0.28463173 C61.19996833 -0.29013408 62.96519857 -0.30087768 64.73036957 -0.31719017 C79.65981033 -0.44955094 91.94355562 0.42839976 103.74609375 10.48828125 C110.98887386 17.76718495 112.55458859 29.13413722 113 39 C112.34 39 111.68 39 111 39 C111.03625488 39.95398682 111.07250977 40.90797363 111.10986328 41.89086914 C111.10407688 46.62867363 110.18281529 51.11736328 109.2421875 55.74609375 C109.05665314 56.67486832 108.87111877 57.60364288 108.67996216 58.56056213 C108.28502866 60.52376751 107.88642396 62.4862375 107.484375 64.44799805 C106.88381441 67.39425784 106.30460769 70.34417411 105.7265625 73.29492188 C101.79070877 92.91866275 96.5305646 114.0096291 79 126 C67.24753996 132.39745091 56.27386797 135.18199428 42.93164062 135.11352539 C41.78872055 135.11374443 41.78872055 135.11374443 40.62271118 135.1139679 C38.13386062 135.11327781 35.6450873 135.10552829 33.15625 135.09765625 C31.41890504 135.09578885 29.68155955 135.09436647 27.94421387 135.09336853 C23.39374309 135.0895687 18.84330474 135.0797603 14.29284668 135.06866455 C9.64054808 135.0583957 4.98824419 135.05385923 0.3359375 135.04882812 C-8.77605583 135.03813554 -17.88802521 135.02108988 -27 135 C-26.33257769 126.01245137 -24.5602972 117.34393164 -22.71875 108.54296875 C-22.38514532 106.92938483 -22.05203168 105.31569931 -21.71937561 103.70191956 C-21.01531321 100.2907962 -20.3082614 96.88031299 -19.59866333 93.47033691 C-17.94529323 85.52492869 -16.30563311 77.57668673 -14.66476631 69.62868881 C-14.12215649 67.00123979 -13.57891504 64.37392188 -13.03562927 61.74661255 C-9.76543908 45.92080334 -6.58968722 30.07696148 -3.4765625 14.21948242 C-3.31055038 13.3793309 -3.14453827 12.53917938 -2.97349548 11.67356873 C-2.67210343 10.14815767 -2.37303982 8.62228366 -2.07691956 7.09584045 C-1.11275257 2.22550515 -1.11275257 2.22550515 0 0 Z M26 27 C22.08421225 44.54548376 18.3044364 62.11790306 14.67404175 79.72473145 C14.26698054 81.69684235 13.85823306 83.66860597 13.44778442 85.64001465 C12.86770037 88.42957155 12.29425045 91.22041149 11.72265625 94.01171875 C11.54798828 94.84690536 11.37332031 95.68209198 11.19335938 96.54258728 C10.40663529 100.42221831 9.77873039 104.01664526 10 108 C20.33796817 109.33052501 30.59451431 109.16953542 41 109 C42.25941406 108.98324219 43.51882813 108.96648437 44.81640625 108.94921875 C53.23433182 108.57293855 58.47544586 105.88870995 64.25 99.8125 C70.92231448 91.15870303 72.55855544 80.06519301 74.71972656 69.61450195 C75.24878103 67.06836644 75.79922925 64.52750254 76.3515625 61.98632812 C79.90265214 47.59460052 79.90265214 47.59460052 77.375 33.5 C73.45241245 29.37096047 68.71343622 27.22764858 63.03839111 26.87974548 C62.35444275 26.88196609 61.67049438 26.88418671 60.96582031 26.88647461 C60.18531311 26.88655014 59.40480591 26.88662567 58.60064697 26.88670349 C57.76821472 26.89186478 56.93578247 26.89702606 56.078125 26.90234375 C55.21813904 26.9037587 54.35815308 26.90517365 53.47210693 26.90663147 C50.73136891 26.91221903 47.99071324 26.92476925 45.25 26.9375 C43.3893241 26.94251661 41.52864691 26.94707923 39.66796875 26.95117188 C35.11194754 26.96218439 30.55598772 26.97944049 26 27 Z " fill="#7E8085" transform="translate(419,483)"/>
<path d="M0 0 C2.18409915 0.06022421 4.36835663 0.11497168 6.55273438 0.1640625 C11.89278726 0.29600061 17.22691255 0.49644688 22.5625 0.75 C23.95772964 8.70763186 25.09729819 16.65690917 26.0078125 24.68359375 C26.27915692 27.02019855 26.55064798 29.35678632 26.82226562 31.69335938 C26.96317627 32.91434326 27.10408691 34.13532715 27.24926758 35.39331055 C29.31887723 53.3118641 31.45487095 71.21761284 33.8359375 89.09765625 C33.97630621 90.15379025 33.97630621 90.15379025 34.11951065 91.2312603 C35.03233987 98.09577784 35.952778 104.95917567 36.89226723 111.82009792 C37.31826088 114.94193563 37.73631061 118.06484297 38.15625 121.1875 C38.31419037 122.31910049 38.47213074 123.45070099 38.63485718 124.61659241 C38.77275665 125.64932785 38.91065613 126.68206329 39.05273438 127.74609375 C39.23757385 129.09465454 39.23757385 129.09465454 39.42614746 130.47045898 C39.5625 132.75 39.5625 132.75 38.5625 135.75 C28.3325 135.75 18.1025 135.75 7.5625 135.75 C5.3125 121.125 5.3125 121.125 5.5625 113.75 C4.9025 113.42 4.2425 113.09 3.5625 112.75 C3.53091797 111.88463623 3.49933594 111.01927246 3.46679688 110.12768555 C2.7790921 95.56734667 1.00514867 81.12452807 -0.69281006 66.65515137 C-1.02144964 63.84454105 -1.34535149 61.03339339 -1.66912079 58.22221851 C-2.05870945 54.84192833 -2.45118878 51.4619776 -2.84375 48.08203125 C-3.06097717 46.2070269 -3.06097717 46.2070269 -3.28259277 44.29414368 C-3.41943481 43.12820175 -3.55627686 41.96225983 -3.69726562 40.76098633 C-3.81638306 39.74192703 -3.93550049 38.72286774 -4.05822754 37.67292786 C-4.44607556 34.68391102 -4.92403219 31.71979379 -5.4375 28.75 C-5.91993164 29.68980713 -6.40236328 30.62961426 -6.89941406 31.59790039 C-18.30595932 53.81484181 -29.75497949 76.00653079 -41.41967773 98.08935547 C-44.09224201 103.16086817 -46.73228582 108.24858488 -49.359375 113.34375 C-49.70058884 114.00519012 -50.04180267 114.66663025 -50.39335632 115.34811401 C-52.10646359 118.66967437 -53.81722621 121.99241329 -55.5246582 125.31689453 C-56.15309436 126.53681641 -56.78159088 127.75670719 -57.41015625 128.9765625 C-58.24945679 130.60972412 -58.24945679 130.60972412 -59.10571289 132.27587891 C-60.4375 134.75 -60.4375 134.75 -61.4375 135.75 C-63.8131852 135.8383967 -66.15958674 135.86530305 -68.53515625 135.84765625 C-69.59844398 135.84553383 -69.59844398 135.84553383 -70.68321228 135.84336853 C-72.95551712 135.83775443 -75.22772475 135.82519963 -77.5 135.8125 C-79.03710796 135.80748681 -80.57421745 135.80292359 -82.11132812 135.79882812 C-85.88675642 135.78778042 -89.66211171 135.77050641 -93.4375 135.75 C-91.90534174 131.0058424 -90.00944808 127.06548537 -87.4609375 122.80078125 C-86.21423413 120.68461116 -86.21423413 120.68461116 -86.4375 117.75 C-85.46909751 116.71937076 -84.46507686 115.72164078 -83.4375 114.75 C-82.36388811 113.05360445 -82.36388811 113.05360445 -81.45141602 111.1784668 C-81.08952179 110.46809265 -80.72762756 109.75771851 -80.35476685 109.02581787 C-79.97085785 108.25804016 -79.58694885 107.49026245 -79.19140625 106.69921875 C-78.784133 105.89720032 -78.37685974 105.09518188 -77.95724487 104.26885986 C-77.08554724 102.55153669 -76.21632125 100.83295711 -75.34933472 99.11325073 C-73.09191715 94.63675825 -70.81605148 90.16968684 -68.5390625 85.703125 C-68.0930217 84.82756454 -67.6469809 83.95200409 -67.18742371 83.0499115 C-63.85879909 76.53286894 -60.42635152 70.08636436 -56.875 63.6875 C-52.51859319 55.82707613 -48.43573762 47.86013518 -44.44799805 39.80688477 C-41.42702266 33.71070434 -38.34868004 27.64974417 -35.1875 21.625 C-34.81157715 20.90417236 -34.4356543 20.18334473 -34.04833984 19.44067383 C-33.28848421 17.99984657 -32.49935566 16.57413148 -31.68383789 15.1640625 C-30.31968724 12.68381886 -30.31968724 12.68381886 -29.40795898 9.5546875 C-24.27368997 -3.5028124 -11.88991296 -0.56699293 0 0 Z " fill="#7E8085" transform="translate(342.4375,482.25)"/>
<path d="M0 0 C9.9626075 -0.09309664 19.92510978 -0.16396487 29.88806534 -0.20724869 C34.51537808 -0.22803345 39.142391 -0.25618236 43.76953125 -0.30175781 C48.2434759 -0.34554348 52.717134 -0.36920544 57.19127655 -0.37950897 C58.8895493 -0.38684211 60.58780817 -0.40116035 62.28595734 -0.42292023 C74.8347938 -0.57717589 86.79637547 -0.18135505 96.37890625 9.0625 C103.45585813 17.52073646 103.9381906 27.43196721 103 38 C100.66210712 54.301915 97.57882768 71.61743591 86 84 C85.47792969 84.56332031 84.95585937 85.12664062 84.41796875 85.70703125 C73.08973162 96.59426645 56.65256281 97.19485577 41.87548828 96.94482422 C31.91420366 96.73258248 21.95625142 96.37594887 12 96 C11.86424561 96.71953857 11.72849121 97.43907715 11.58862305 98.18041992 C10.95759327 101.51662602 10.3225621 104.85205922 9.6875 108.1875 C9.47416016 109.31865234 9.26082031 110.44980469 9.04101562 111.61523438 C8.82509766 112.74638672 8.60917969 113.87753906 8.38671875 115.04296875 C8.19295654 116.06414795 7.99919434 117.08532715 7.79956055 118.13745117 C6.63161529 123.77960746 5.29558935 129.38577949 4 135 C-6.56 135 -17.12 135 -28 135 C-27.40945852 129.6851267 -26.86253504 124.81529939 -25.78491211 119.65405273 C-25.42465187 117.91326698 -25.42465187 117.91326698 -25.05711365 116.13731384 C-24.79978958 114.91508621 -24.54246552 113.69285858 -24.27734375 112.43359375 C-24.01240616 111.15895767 -23.74746857 109.88432159 -23.47450256 108.57106018 C-22.77620732 105.21173918 -22.07294995 101.85347651 -21.36859131 98.49542236 C-20.64827836 95.05682804 -19.93274987 91.61723862 -19.21679688 88.17773438 C-17.81583218 81.45085123 -16.40961349 74.72507596 -15 68 C-10.03343963 67.85236567 -5.06675599 67.71033847 -0.09988403 67.57357788 C1.6725382 67.52459506 3.44493853 67.47481297 5.21731567 67.42422485 C14.55158142 67.16096792 23.87287461 66.94355101 33.2109375 67.07421875 C33.91792282 67.08248688 34.62490814 67.090755 35.35331726 67.09927368 C38.65368203 67.13997869 41.95102553 67.20275747 45.25024414 67.30078125 C52.36323815 67.41009931 56.99789943 66.94687893 63 63 C68.9969204 55.54436923 70.45025842 44.33160579 70 35 C68.76820229 32.22845514 67.84785414 30.55999751 65.30914307 28.88320923 C62.23151752 27.7060681 59.59852476 27.71776139 56.30371094 27.68115234 C55.63988403 27.67110672 54.97605713 27.6610611 54.29211426 27.65071106 C52.10620967 27.61991367 49.92042737 27.6028539 47.734375 27.5859375 C46.21550446 27.56722304 44.69664428 27.54764941 43.17779541 27.5272522 C39.18630081 27.47595421 35.19477251 27.43631612 31.203125 27.39910889 C27.12751953 27.35905454 23.05205396 27.30796874 18.9765625 27.2578125 C10.98447062 27.16108086 2.99230942 27.07666736 -5 27 C-3.37772519 17.99160341 -1.69296954 8.99531146 0 0 Z " fill="#7E8186" transform="translate(170,483)"/>
<path d="M0 0 C0.62261719 0.34933594 1.24523437 0.69867187 1.88671875 1.05859375 C9.16040843 5.61845561 13.97600552 13.74384986 16 22 C17.28585186 29.76886251 17.14536068 37.55187627 17.1328125 45.40234375 C17.13348695 46.89067094 17.13445816 48.37899802 17.13571167 49.86732483 C17.13717879 52.96958476 17.1350638 56.07181572 17.13037109 59.17407227 C17.12463939 63.15781136 17.1279806 67.14148358 17.13394356 71.1252203 C17.13754618 74.19029755 17.13641258 77.25535876 17.13381577 80.32043648 C17.13314747 81.7905128 17.13397155 83.26059057 17.13629532 84.73066521 C17.13882064 86.77478891 17.13429261 88.81891772 17.12939453 90.86303711 C17.12859894 92.02693466 17.12780334 93.19083221 17.12698364 94.38999939 C17 97 17 97 16 98 C13.78144736 98.08783542 11.56011504 98.10694609 9.33984375 98.09765625 C8.34314415 98.09553383 8.34314415 98.09553383 7.3263092 98.09336853 C5.19666101 98.08775518 3.06711661 98.07520054 0.9375 98.0625 C-0.50325369 98.05748671 -1.94400903 98.05292351 -3.38476562 98.04882812 C-6.92321102 98.03778145 -10.46159539 98.02050792 -14 98 C-15.38976514 95.22046972 -15.10433506 92.97932042 -15.08178711 89.86962891 C-15.0752562 88.58134186 -15.06872528 87.29305481 -15.06199646 85.96572876 C-15.05625547 85.27515003 -15.05051449 84.5845713 -15.04459953 83.87306595 C-15.02723217 81.71268278 -15.01691712 79.55237336 -15.00868225 77.39193726 C-14.98421004 71.24885064 -14.94868964 65.10586316 -14.90405273 58.96289062 C-14.8772519 55.20642123 -14.86021992 51.45000954 -14.84918404 47.69346237 C-14.84297856 46.26212815 -14.83297859 44.83080513 -14.81910515 43.39952469 C-14.79986352 41.39613681 -14.79404722 39.39263361 -14.78881836 37.38916016 C-14.78136093 36.24935699 -14.7739035 35.10955383 -14.76622009 33.93521118 C-14.99665675 31.04197604 -15.39699876 29.39512985 -17 27 C-18.89768759 26.00469206 -18.89768759 26.00469206 -21 26 C-21.99 26.66 -22.98 27.32 -24 28 C-24.47966252 31.03044541 -24.47966252 31.03044541 -24.43237305 34.65283203 C-24.4425647 35.33587402 -24.45275635 36.01891602 -24.46325684 36.72265625 C-24.49349516 38.98445725 -24.5026688 41.24583556 -24.51171875 43.5078125 C-24.5285575 45.07438578 -24.54670665 46.64094548 -24.56611633 48.20748901 C-24.61371022 52.33383949 -24.64345853 56.46013495 -24.66955566 60.58666992 C-24.7045447 65.53607196 -24.76158388 70.48526255 -24.81494904 75.43449402 C-24.89357305 82.95630302 -24.94409461 90.47783318 -25 98 C-35.23 98 -45.46 98 -56 98 C-57.37045227 95.25909547 -57.13476633 93.06466196 -57.14526367 89.99658203 C-57.15164352 88.73411652 -57.15802338 87.471651 -57.16459656 86.17092896 C-57.16612665 84.78322386 -57.16723985 83.39551825 -57.16796875 82.0078125 C-57.17118381 80.58210212 -57.17454807 79.15639207 -57.17805481 77.73068237 C-57.18405308 74.73288206 -57.18589437 71.73511058 -57.18530273 68.73730469 C-57.18520192 64.9270567 -57.1987669 61.11699845 -57.21607494 57.30679512 C-57.22729848 54.35534854 -57.22921868 51.40394603 -57.22869301 48.45248032 C-57.22986096 47.05010204 -57.23421481 45.64772216 -57.24202538 44.24536514 C-57.31834323 29.10656373 -56.52202164 16.27070515 -45.90234375 4.8203125 C-33.94503875 -6.62137976 -14.16129128 -8.50831146 0 0 Z " fill="#2963B2" transform="translate(863,520)"/>
<path d="M0 0 C10.56 0 21.12 0 32 0 C29.11290247 14.62871859 26.13081149 29.2321782 23.046875 43.8203125 C22.78652718 45.0524007 22.78652718 45.0524007 22.5209198 46.30937958 C20.89581346 53.99838441 19.26718685 61.68664222 17.63671875 69.37451172 C16.73424904 73.63043124 15.83400799 77.88681738 14.93509674 82.14348984 C14.59629334 83.74555715 14.25662476 85.34744177 13.91603851 86.94913101 C13.44291901 89.17414828 12.97262759 91.39974659 12.50292969 93.62548828 C12.23599304 94.88467072 11.9690564 96.14385315 11.69403076 97.44119263 C11.01172162 100.93989463 10.50411232 104.47121377 10 108 C28.81 108.33 47.62 108.66 67 109 C65.90533539 117.75731684 63.91451286 126.38469215 62 135 C32.3 135 2.6 135 -28 135 C-25.12228759 119.46035298 -22.25331871 103.97234064 -18.96875 88.5234375 C-18.60640354 86.80594656 -18.24439312 85.08838469 -17.88269043 83.37075806 C-16.94712994 78.93148993 -16.0079213 74.49300314 -15.06756592 70.05474854 C-13.56657517 62.96785762 -12.07066037 55.87989327 -10.57571411 48.79172516 C-10.21455036 47.07979054 -9.85312318 45.36791147 -9.49142456 43.65608978 C-7.05506775 32.12282608 -4.67214178 20.58187397 -2.43273926 9.00839233 C-2.1653595 7.64032944 -2.1653595 7.64032944 -1.89257812 6.24462891 C-1.66737488 5.07475937 -1.66737488 5.07475937 -1.43762207 3.8812561 C-1 2 -1 2 0 0 Z " fill="#7C7F84" transform="translate(667,483)"/>
<path d="M0 0 C29.7 0 59.4 0 90 0 C90 7 90 7 86 23 C66.2 23 46.4 23 26 23 C25.34 26.96 24.68 30.92 24 35 C22.68 41.27 21.36 47.54 20 54 C51.68 54.495 51.68 54.495 84 55 C82.54910197 63.7053882 80.84919231 72.37043589 79 81 C47.32 81 15.64 81 -17 81 C-18.54630943 77.90738113 -17.40031081 75.6305094 -16.62890625 72.30078125 C-16.47152481 71.60973801 -16.31414337 70.91869476 -16.1519928 70.20671082 C-15.80842885 68.69966255 -15.46191707 67.19328406 -15.112854 65.6875 C-14.17374296 61.63485622 -13.25572805 57.5774785 -12.33984375 53.51953125 C-12.14793457 52.67033112 -11.95602539 51.82113098 -11.75830078 50.94619751 C-10.34998268 44.66991131 -9.02924354 38.37878885 -7.75390625 32.07421875 C-7.57402664 31.18559647 -7.39414703 30.29697418 -7.20881653 29.38142395 C-6.33564637 25.05456259 -5.47187955 20.72596078 -4.61547852 16.39575195 C-4.29845413 14.81589503 -3.98132107 13.23605991 -3.6640625 11.65625 C-3.52476822 10.93801559 -3.38547394 10.21978119 -3.24195862 9.4797821 C-2.52147724 5.91368933 -1.65097112 3.30194224 0 0 Z " fill="#7C7F83" transform="translate(543,537)"/>
<path d="M0 0 C0.66 0 1.32 0 2 0 C2 28.71 2 57.42 2 87 C-8.56 87 -19.12 87 -30 87 C-30.33 60.27 -30.66 33.54 -31 6 C-27 5 -27 5 -25.13671875 5.9453125 C-19.96607283 8.49755089 -12.48450132 6.78911346 -7.18359375 5.10546875 C-2.8132409 3.43829281 -2.8132409 3.43829281 0 0 Z " fill="#2963B3" transform="translate(790,531)"/>
<path d="M0 0 C0.87537415 0.00359528 1.75074829 0.00719055 2.65264893 0.01089478 C4.02812141 0.01067574 4.02812141 0.01067574 5.43138123 0.01045227 C8.47773564 0.01115177 11.52402973 0.01894589 14.57037354 0.02676392 C16.67644721 0.02862796 18.78252132 0.03005193 20.88859558 0.03105164 C26.44364612 0.03487786 31.99867069 0.04470903 37.55371094 0.05575562 C43.21746469 0.0659675 48.88122262 0.07054878 54.54498291 0.07559204 C65.66673914 0.0863312 76.78847606 0.10340887 87.91021729 0.12442017 C87.59408245 1.86778146 87.27771151 3.61109994 86.96124268 5.35440063 C86.78508926 6.32521576 86.60893585 7.29603088 86.42744446 8.29626465 C85.75875529 11.95260186 85.0629957 15.60187477 84.34771729 19.24942017 C84.09892822 20.53074829 83.85013916 21.81207642 83.59381104 23.13223267 C82.91021729 26.12442017 82.91021729 26.12442017 81.91021729 27.12442017 C79.12685701 27.24431534 76.3672014 27.29988961 73.58258057 27.31387329 C72.70943207 27.3221666 71.83628357 27.3304599 70.93667603 27.33900452 C69.0339861 27.35644671 67.13127419 27.37160199 65.22854996 27.38478088 C62.21994562 27.40574391 59.21145135 27.4327728 56.20291138 27.4614563 C49.813722 27.52126671 43.42448172 27.57335102 37.03521729 27.62442017 C29.64085802 27.68359389 22.24655264 27.74589037 14.85229111 27.81629944 C11.88367169 27.84291783 8.91504704 27.86370853 5.94638062 27.88430786 C4.12979881 27.90091011 2.31321945 27.91778188 0.49664307 27.93496704 C-0.33256653 27.93915146 -1.16177612 27.94333588 -2.01611328 27.94764709 C-5.29073519 27.98359976 -7.96171488 28.08173089 -11.08978271 29.12442017 C-11.08978271 28.46442017 -11.08978271 27.80442017 -11.08978271 27.12442017 C-11.74978271 26.79442017 -12.40978271 26.46442017 -13.08978271 26.12442017 C-12.80232178 25.33680298 -12.51486084 24.54918579 -12.21868896 23.73770142 C-10.8356912 19.31115149 -9.93201022 14.85619788 -9.02728271 10.31192017 C-8.68569891 8.59638219 -8.34082608 6.88149469 -7.99212646 5.16738892 C-7.84251465 4.41481812 -7.69290283 3.66224731 -7.53875732 2.88687134 C-6.52231377 -1.10318089 -3.57829263 0.0062084 0 0 Z " fill="#818388" transform="translate(560.0897827148438,482.8755798339844)"/>
<path d="M0 0 C2.60868373 3.11359026 3.39920541 5.27529055 3.9375 9.3125 C3.10143105 15.37997178 -0.2252508 19.10335439 -4.88671875 22.8359375 C-10.51313441 26.65422317 -16.23543853 28.23646321 -23.0625 27.3125 C-27.69266581 26.38025185 -31.75303748 25.11661443 -35.125 21.6875 C-37.62545672 17.33186571 -38.08941579 14.21602287 -37.0625 9.3125 C-34.71959873 3.44353232 -30.19321161 0.75282908 -24.6015625 -1.74609375 C-16.48984181 -4.75367019 -7.64177212 -4.21077239 0 0 Z " fill="#2A67B8" transform="translate(782.0625,478.6875)"/>
<path d="M0 0 C3 1 3 1 4.16796875 2.93359375 C7.24720146 10.49600051 8.42132749 17.27406306 5.875 25.1875 C2.45445976 33.04207389 -3.26415111 37.59622649 -11 41 C-18.62208742 43.33389499 -26.84221034 42.36573182 -34 39 C-39.7676178 34.98617194 -44.19530844 30.46298489 -47 24 C-47.25 21.0625 -47.25 21.0625 -47 19 C-46.34 19 -45.68 19 -45 19 C-45 19.66 -45 20.32 -45 21 C-35.40502615 24.68502619 -25.95089392 26.48043984 -16 23 C-9.47676582 19.6001354 -3.63603168 15.09700836 -1 8 C-0.55308036 5.33389317 -0.2693335 2.69333496 0 0 Z " fill="#2A65B4" transform="translate(790,486)"/>
<path d="M0 0 C6.54006615 0.52164037 12.15738262 1.7652094 18.3125 4 C19.17133789 4.30687744 20.03017578 4.61375488 20.91503906 4.92993164 C30.50968925 8.43580355 39.78305005 12.6077299 49 17 C50.04317383 17.49669189 50.04317383 17.49669189 51.10742188 18.00341797 C80.48709821 32.11282838 107.47524108 49.48767534 132 71 C132.68578125 71.58652344 133.3715625 72.17304688 134.078125 72.77734375 C143.59012098 80.95046635 152.96675048 89.35202696 161 99 C162.24757871 100.37719728 163.49774881 101.7520499 164.75 103.125 C169.67725645 108.65500822 174.18280242 114.50338944 178.71337891 120.35791016 C179.88509331 121.85334679 181.0874841 123.32461862 182.29296875 124.79296875 C182.93878906 125.58316406 183.58460938 126.37335938 184.25 127.1875 C184.81203125 127.86167969 185.3740625 128.53585937 185.953125 129.23046875 C186.29859375 129.81441406 186.6440625 130.39835938 187 131 C186.67 131.99 186.34 132.98 186 134 C185.21238281 133.95359375 184.42476562 133.9071875 183.61328125 133.859375 C174.42092114 133.55477609 165.19998824 134.51012694 157.375 139.76171875 C156.59125 140.17035156 155.8075 140.57898438 155 141 C151.79212025 139.84302044 150.05652451 138.18466367 147.96875 135.54296875 C147.13283325 134.50172852 147.13283325 134.50172852 146.2800293 133.43945312 C145.69261963 132.69630859 145.10520996 131.95316406 144.5 131.1875 C138.28930459 123.48900342 131.83472796 116.14717267 125 109 C124.22140625 108.18015625 123.4428125 107.3603125 122.640625 106.515625 C117.99176374 101.73488115 113.06562315 97.46434158 107.859375 93.30078125 C105.00366655 91.00295027 102.22332687 88.63180501 99.4375 86.25 C70.76271697 62.4521302 37.35928687 43.78642896 2 32 C2 31.34 2 30.68 2 30 C6.12869012 30.57148964 9.66072333 31.50423296 13.5 33.1171875 C14.5405957 33.55329346 15.58119141 33.98939941 16.65332031 34.4387207 C17.75772461 34.91269287 18.86212891 35.38666504 20 35.875 C21.15338867 36.36895264 22.30677734 36.86290527 23.49511719 37.37182617 C46.88728971 47.50339608 68.64827856 59.57303914 89 75 C90.22518556 75.88732102 91.45187217 76.77257146 92.6796875 77.65625 C101.82728584 84.29498988 110.11058628 91.49930865 118.24804688 99.33349609 C120.44746098 101.42563665 122.69776324 103.45645376 124.95581055 105.48486328 C131.35217512 111.24310832 136.82118928 117.29262307 142.20703125 123.98046875 C142.788479 124.70081299 143.36992676 125.42115723 143.96899414 126.16333008 C145.14108408 127.61884245 146.30838297 129.07822816 147.47045898 130.54174805 C148.01130127 131.21633057 148.55214355 131.89091309 149.109375 132.5859375 C149.59374023 133.1948584 150.07810547 133.8037793 150.57714844 134.43115234 C152.10999234 136.24931853 152.10999234 136.24931853 155 138 C155.92619141 137.49339844 155.92619141 137.49339844 156.87109375 136.9765625 C165.72999378 132.31114483 173.02563462 130.68335348 183 131 C175.85502425 121.00463499 168.43422687 111.44479292 160.1484375 102.3671875 C158.24848159 100.27378154 156.39998279 98.14804326 154.5625 96 C147.94227176 88.41432181 140.67329176 81.50415624 133 75 C132.06800781 74.19046875 131.13601563 73.3809375 130.17578125 72.546875 C112.7620626 57.49568413 93.92423416 44.4927851 74 33 C73.24058105 32.56010742 72.48116211 32.12021484 71.69873047 31.66699219 C60.43905165 25.18683019 49.0780666 19.6146401 37.00976562 14.80957031 C34.4001904 13.75838573 31.8283636 12.62523961 29.25 11.5 C19.69777406 7.5061814 9.79508068 4.34013745 0 1 C0 0.67 0 0.34 0 0 Z " fill="#255396" transform="translate(588,333)"/>
<path d="M0 0 C0.66 0 1.32 0 2 0 C2 23.76 2 47.52 2 72 C10.91 72 19.82 72 29 72 C29 49.89 29 27.78 29 5 C29.66 4.67 30.32 4.34 31 4 C31 27.43 31 50.86 31 75 C20.77 75 10.54 75 0 75 C-1.37908398 72.24183204 -1.12721378 70.01991951 -1.12939453 66.93310547 C-1.13254669 65.65772919 -1.13569885 64.38235291 -1.13894653 63.06832886 C-1.13715555 61.66794806 -1.1351043 60.26756757 -1.1328125 58.8671875 C-1.13348625 57.43189477 -1.13445687 55.99660215 -1.13571167 54.56130981 C-1.13718813 51.54672158 -1.13503763 48.53216292 -1.13037109 45.51757812 C-1.12470456 41.67111764 -1.12793347 37.82472742 -1.13394356 33.97826958 C-1.1375769 31.00983157 -1.13639737 28.04140988 -1.13381577 25.07297134 C-1.13315255 23.65612912 -1.13395359 22.23928536 -1.13629532 20.82244492 C-1.14534754 13.79876898 -1.11330169 6.94403962 0 0 Z " fill="#265292" transform="translate(807,543)"/>
<path d="M0 0 C0.66 0 1.32 0 2 0 C2 28.71 2 57.42 2 87 C-8.56 87 -19.12 87 -30 87 C-30 60.6 -30 34.2 -30 7 C-27.55866763 9.44133237 -27.76541868 10.74108811 -27.75115967 14.07189941 C-27.75835022 14.77536499 -27.76554077 15.47883057 -27.77294922 16.20361328 C-27.77265717 16.9451767 -27.77236511 17.68674011 -27.77206421 18.45077515 C-27.77346006 20.90740571 -27.78903302 23.36373478 -27.8046875 25.8203125 C-27.80841673 27.52139114 -27.81126413 29.22247192 -27.81326294 30.92355347 C-27.82090651 35.40510976 -27.84056116 39.88653683 -27.8626709 44.36804199 C-27.88311378 48.93935396 -27.89226132 53.51068677 -27.90234375 58.08203125 C-27.92380643 67.05475347 -27.95899441 76.02734578 -28 85 C-18.76 85 -9.52 85 0 85 C0 56.95 0 28.9 0 0 Z " fill="#234E8D" transform="translate(790,531)"/>
<path d="M0 0 C0.66 0 1.32 0 2 0 C1.88426734 1.85476817 1.75691885 3.70881274 1.625 5.5625 C1.55539062 6.59503906 1.48578125 7.62757813 1.4140625 8.69140625 C1 12 1 12 -1 19 C27.05 19 55.1 19 84 19 C84.66 17.68 85.32 16.36 86 15 C86 17.31 86 19.62 86 22 C56.3 22 26.6 22 -4 22 C-2.68 14.74 -1.36 7.48 0 0 Z " fill="#75777A" transform="translate(643,596)"/>
<path d="M0 0 C0.33 0 0.66 0 1 0 C1 1.98 1 3.96 1 6 C28.06 6 55.12 6 83 6 C77.83293573 8.58353214 74.15143557 9.14180524 68.49926758 9.11352539 C67.73805099 9.11367142 66.97683441 9.11381744 66.19255066 9.1139679 C63.6765152 9.11327124 61.16055378 9.10549038 58.64453125 9.09765625 C56.90004008 9.09579119 55.1555484 9.0943677 53.41105652 9.09336853 C48.81941278 9.08955026 44.22780067 9.07972584 39.63616943 9.06866455 C34.95081002 9.05843561 30.26544549 9.05386773 25.58007812 9.04882812 C16.38670485 9.03810298 7.19335506 9.02103481 -2 9 C-1.125 2.25 -1.125 2.25 0 0 Z " fill="#717274" transform="translate(394,609)"/>
<path d="M0 0 C-5.05581137 2.63728622 -10.14949252 5.08819474 -15.40917969 7.29516602 C-43.09797887 18.98347059 -73.71588144 36.81264404 -94.66796875 58.74609375 C-96 60 -96 60 -98 60 C-98 60.66 -98 61.32 -98 62 C-100.475 62.99 -100.475 62.99 -103 64 C-86.44161465 42.7106474 -59.8763137 27.89335528 -36.61328125 15.03125 C-33.61521939 13.36557375 -30.71050765 11.58524879 -27.8125 9.75 C-23.10631065 6.88017845 -18.16524843 4.98682187 -12.99609375 3.10546875 C-10.55592199 2.20511854 -8.22836644 1.22456445 -5.875 0.125 C-3 -1 -3 -1 0 0 Z " fill="#245294" transform="translate(383,369)"/>
<path d="M0 0 C6.47732952 0.26988873 10.36434917 2.49625793 15 7 C23.77057349 17.70642079 24.4256462 27.72144126 24.29296875 40.96875 C24.28736595 42.61641044 24.28309909 44.26407592 24.28010559 45.91174316 C24.26871056 50.2256069 24.23929012 54.53916241 24.20599365 58.85290527 C24.17517688 63.26387362 24.16157556 67.67489229 24.14648438 72.0859375 C24.11441466 80.72409899 24.0632839 89.36201103 24 98 C23.67 98 23.34 98 23 98 C21.89739692 91.07611505 21.85012639 84.23919788 21.83133507 77.23688126 C21.82407762 75.0910841 21.80834545 72.94550375 21.78999329 70.79977417 C21.7379471 64.70427369 21.68958629 58.6089017 21.67407227 52.51318359 C21.66392449 48.76895208 21.63444107 45.02528425 21.59275246 41.2812767 C21.58054472 39.86613118 21.57530225 38.45090577 21.57755089 37.03570938 C21.58928786 27.24173839 20.80010393 18.67353447 14.6875 10.6875 C10.33292669 6.33292669 5.8980398 2.96601327 0 1 C0 0.67 0 0.34 0 0 Z " fill="#144388" transform="translate(855,518)"/>
<path d="M0 0 C31.02 0 62.04 0 94 0 C94 0.99 94 1.98 94 3 C47.47 2.505 47.47 2.505 0 2 C0 1.34 0 0.68 0 0 Z " fill="#636467" transform="translate(554,483)"/>
<path d="M0 0 C0.73511307 0.00359528 1.47022614 0.00719055 2.22761536 0.01089478 C2.99829346 0.01074875 3.76897156 0.01060272 4.56300354 0.01045227 C7.12237823 0.01115157 9.68168104 0.01894471 12.24104309 0.02676392 C14.01081299 0.02862804 15.7805834 0.03005197 17.550354 0.03105164 C22.2176505 0.03487728 26.88491607 0.04470796 31.55220032 0.05575562 C36.31110719 0.06596873 41.07001905 0.07054904 45.82893372 0.07559204 C55.17334837 0.08633019 64.51774004 0.10340717 73.86213684 0.12442017 C73.86213684 0.78442017 73.86213684 1.44442017 73.86213684 2.12442017 C76.83213684 2.12442017 79.80213684 2.12442017 82.86213684 2.12442017 C82.86213684 2.45442017 82.86213684 2.78442017 82.86213684 3.12442017 C39.79713684 3.61942017 39.79713684 3.61942017 -4.13786316 4.12442017 C-4.79786316 5.44442017 -5.45786316 6.76442017 -6.13786316 8.12442017 C-6.18028039 5.79147241 -6.17879253 3.4573945 -6.13786316 1.12442017 C-4.42956906 -0.58387393 -2.27781939 0.0047009 0 0 Z " fill="#626468" transform="translate(548.1378631591797,536.8755798339844)"/>
<path d="M0 0 C9.59657342 -0.04630573 19.19310848 -0.0818602 28.78976917 -0.10362434 C33.24570978 -0.11406913 37.70157404 -0.12824099 42.1574707 -0.15087891 C46.45628804 -0.17258254 50.75503187 -0.18456339 55.05389977 -0.18975449 C56.69538213 -0.19345471 58.3368604 -0.20068017 59.97831154 -0.21146011 C62.27444838 -0.22594217 64.57028004 -0.22797934 66.86645508 -0.22705078 C68.17439529 -0.231492 69.48233551 -0.23593323 70.82991028 -0.24050903 C74 0 74 0 77 2 C52.25 2 27.5 2 2 2 C1.67 4.97 1.34 7.94 1 11 C0.34 11.99 -0.32 12.98 -1 14 C-1.02736707 12.60427948 -1.04655989 11.20839779 -1.0625 9.8125 C-1.07410156 9.03519531 -1.08570313 8.25789063 -1.09765625 7.45703125 C-0.99513581 4.87761706 -0.53085076 2.52200033 0 0 Z " fill="#65676B" transform="translate(170,483)"/>
<path d="M0 0 C-2 2 -2 2 -4.822052 2.24050903 C-6.62740921 2.2338472 -6.62740921 2.2338472 -8.46923828 2.22705078 C-9.13277313 2.22734283 -9.79630798 2.22763489 -10.47994995 2.22793579 C-12.67686972 2.22654056 -14.87345186 2.21097067 -17.0703125 2.1953125 C-18.59202896 2.19158305 -20.11374781 2.18873576 -21.63546753 2.18673706 C-25.64356092 2.17909523 -29.6515097 2.15944213 -33.6595459 2.1373291 C-37.74827112 2.11688244 -41.83701966 2.10773788 -45.92578125 2.09765625 C-53.95058724 2.07619667 -61.97527564 2.04205421 -70 2 C-70.14308594 3.2684375 -70.28617188 4.536875 -70.43359375 5.84375 C-70.7841152 8.95107532 -71.31598056 11.3055689 -73 14 C-73.02736707 12.60427948 -73.04655989 11.20839779 -73.0625 9.8125 C-73.07410156 9.03519531 -73.08570313 8.25789062 -73.09765625 7.45703125 C-72.99513581 4.87761706 -72.53085076 2.52200033 -72 0 C-47.94250724 -0.87840324 -24.05412561 -1.02849228 0 0 Z " fill="#6A6C6F" transform="translate(227,551)"/>
<path d="M0 0 C2.52322276 2.35500791 3.39958891 4.63769791 4 8 C0.66253855 11.25605995 -0.9874592 12.8079664 -5.625 13.6875 C-9 13 -9 13 -11.4375 10.125 C-13 7 -13 7 -13 5 C-12.34 5 -11.68 5 -11 5 C-10.71125 4.360625 -10.4225 3.72125 -10.125 3.0625 C-7.87480785 -1.06285227 -4.28668405 -0.37602492 0 0 Z " fill="#83878B" transform="translate(201,533)"/>
<path d="M0 0 C0.66 0.33 1.32 0.66 2 1 C0.53515625 2.39973958 -0.9296875 3.79947917 -2.39453125 5.19921875 C-4.11407286 7.00542294 -4.11407286 7.00542294 -5.421875 9.4609375 C-7.14610872 12.2350759 -8.92970682 13.85796707 -11.4375 15.9375 C-15.66499191 19.64733984 -19.41471197 23.54801866 -23.0625 27.8125 C-23.52003662 28.34415771 -23.97757324 28.87581543 -24.44897461 29.42358398 C-29.23771768 35.10170087 -33.52431152 41.03241536 -38 47 C-27.77 47.33 -17.54 47.66 -7 48 C-7 48.33 -7 48.66 -7 49 C-18.55 49 -30.1 49 -42 49 C-37.9667866 42.95017991 -33.99981917 37.29795372 -29.375 31.75 C-28.77179932 31.02200195 -28.16859863 30.29400391 -27.54711914 29.54394531 C-20.41203411 21.00016473 -12.9042289 12.83814003 -5 5 C-4.071875 4.071875 -3.14375 3.14375 -2.1875 2.1875 C-1.465625 1.465625 -0.74375 0.74375 0 0 Z " fill="#1C457E" transform="translate(255,415)"/>
<path d="M0 0 C2 1.0625 2 1.0625 3 3 C2.9333964 6.72980144 2.80428591 9.07656062 0.3125 11.9375 C-2.66455559 13.30533635 -4.75641537 13.34506219 -8 13 C-8.99 12.34 -9.98 11.68 -11 11 C-11.77821012 3.99610895 -11.77821012 3.99610895 -9.4375 1 C-6.09763163 -0.37020241 -3.57400356 -0.3898913 0 0 Z " fill="#7D8185" transform="translate(218,533)"/>
<path d="M0 0 C2 2 2 2 2.4375 5.375 C2 9 2 9 -0.0625 11.5 C-3.86390076 13.44114081 -5.92703189 13.07587837 -10 12 C-10.66 11.34 -11.32 10.68 -12 10 C-11.66785714 3.91071429 -11.66785714 3.91071429 -9.625 1.125 C-6.20972169 -1.23942344 -3.84420696 -1.0842635 0 0 Z " fill="#808589" transform="translate(205,516)"/>
<path d="M0 0 C1.875 1.1875 1.875 1.1875 3 3 C3 6.92139797 2.46224977 8.51206969 -0.25 11.375 C-3.24275832 13.1434481 -4.59934606 13.53694536 -8 13 C-11 11 -11 11 -11.8125 9.1875 C-12.06906062 6.19429272 -11.47444339 4.61378601 -10 2 C-6.47424961 -0.85871653 -4.3044799 -1.58586102 0 0 Z " fill="#84888D" transform="translate(187,516)"/>
<path d="M0 0 C1.875 1.1875 1.875 1.1875 3 3 C2.92457105 6.54516066 2.36986838 8.4794445 0.3125 11.375 C-2.69805225 13.4905232 -4.39243301 13.53729721 -8 13 C-9.875 11.875 -9.875 11.875 -11 10 C-11.4375 7.0625 -11.4375 7.0625 -11 4 C-7.52388135 -0.287213 -5.34245003 -1.56364391 0 0 Z " fill="#83878D" transform="translate(222,516)"/>
<path d="M0 0 C0.33 1.32 0.66 2.64 1 4 C1.69969406 3.83544815 2.39938812 3.6708963 3.12028503 3.50135803 C6.18583673 2.96764585 8.9652763 2.91934208 12.07543945 2.97827148 C13.27630692 2.99836777 14.47717438 3.01846405 15.71443176 3.03916931 C17.00105209 3.06620438 18.28767242 3.09323944 19.61328125 3.12109375 C20.95134137 3.14541699 22.2894103 3.16925942 23.62748718 3.19264221 C27.13744201 3.25526406 30.64723933 3.32439179 34.15704346 3.39489746 C37.74329498 3.46577962 41.32965756 3.53047731 44.91601562 3.59570312 C51.94413101 3.72443282 58.97209857 3.86003928 66 4 C65.38722388 6.96175123 64.74627478 8.38058783 63 11 C63 9.68 63 8.36 63 7 C31.32 6.505 31.32 6.505 -1 6 C-0.67 4.02 -0.34 2.04 0 0 Z " fill="#646669" transform="translate(561,588)"/>
<path d="M0 0 C11.34418396 -0.29630331 22.63967276 0.24715432 33.95898438 0.94580078 C34.63825989 0.98500641 35.3175354 1.02421204 36.01739502 1.06460571 C37.95039609 1.17855455 39.88246881 1.30793409 41.81445312 1.43798828 C42.93875732 1.51130371 44.06306152 1.58461914 45.22143555 1.66015625 C46.06295166 1.79566895 46.90446777 1.93118164 47.77148438 2.07080078 C48.26648438 3.06080078 48.26648438 3.06080078 48.77148438 4.07080078 C26.00148438 3.74080078 3.23148437 3.41080078 -20.22851562 3.07080078 C-15.89661151 -1.26110334 -6.02506214 0.19141849 0 0 Z " fill="#285798" transform="translate(483.228515625,317.92919921875)"/>
<path d="M0 0 C2.0625 2.1875 2.0625 2.1875 3 5 C2.19200245 8.39358971 0.917389 11.02034318 -2 13 C-5.11811483 13.38976435 -7.11019567 13.50422245 -9.875 11.9375 C-11.66235303 8.85928089 -11.43386742 6.47093932 -11 3 C-8.01764342 -0.69812216 -4.50094927 -0.65468353 0 0 Z " fill="#818589" transform="translate(183,533)"/>
<path d="M0 0 C3 1 3 1 4.16796875 2.93359375 C7.29378128 10.61039771 8.46435007 17.3989413 5.6875 25.375 C3.21282799 30.6909621 3.21282799 30.6909621 1 33 C0.34 33 -0.32 33 -1 33 C-0.731875 32.484375 -0.46375 31.96875 -0.1875 31.4375 C0.204375 30.633125 0.59625 29.82875 1 29 C1.53625 27.989375 2.0725 26.97875 2.625 25.9375 C5.12995543 20.09260399 4.75046976 13.02782733 3 7 C2.47212891 7.97839844 2.47212891 7.97839844 1.93359375 8.9765625 C-1.45718652 14.97904037 -5.19417939 21.58202819 -12.2109375 23.65234375 C-13.09652344 23.82443359 -13.09652344 23.82443359 -14 24 C-14 24.99 -14 25.98 -14 27 C-17.3 27 -20.6 27 -24 27 C-21.80883832 25.90441916 -19.61576346 24.81252507 -17.4140625 23.73828125 C-9.93174422 19.91328661 -4.3949709 15.86676076 -1 8 C-0.55499715 5.87406942 -0.55499715 5.87406942 -0.375 3.75 C-0.25125 2.5125 -0.1275 1.275 0 0 Z " fill="#2A5895" transform="translate(790,486)"/>
<path d="M0 0 C0.33 0 0.66 0 1 0 C1 1.65 1 3.3 1 5 C-18.8 5 -38.6 5 -59 5 C-59.33 7.31 -59.66 9.62 -60 12 C-60.99 12.495 -60.99 12.495 -62 13 C-61.85950482 11.52031676 -61.71245174 10.04125484 -61.5625 8.5625 C-61.48128906 7.73878906 -61.40007813 6.91507813 -61.31640625 6.06640625 C-61 4 -61 4 -60 3 C-58.1281906 2.90613619 -56.2528194 2.88256196 -54.37866211 2.88647461 C-52.57690773 2.88658791 -52.57690773 2.88658791 -50.73875427 2.88670349 C-49.4314888 2.89186478 -48.12422333 2.89702606 -46.77734375 2.90234375 C-45.43355868 2.90420802 -44.08977293 2.90563188 -42.74598694 2.90663147 C-39.20317723 2.91045598 -35.6604083 2.92028568 -32.11761475 2.93133545 C-28.50484773 2.94155101 -24.89207416 2.9461294 -21.27929688 2.95117188 C-14.1861812 2.96190802 -7.09309326 2.97898364 0 3 C0 2.01 0 1.02 0 0 Z " fill="#626568" transform="translate(628,555)"/>
<path d="M0 0 C0.66 0 1.32 0 2 0 C0.51546053 4.93422125 -1.55322069 9.306955 -3.921875 13.85546875 C-4.30434387 14.59775223 -4.68681274 15.34003571 -5.08087158 16.10481262 C-5.88914535 17.67158025 -6.69946852 19.23729213 -7.51171875 20.80200195 C-8.73609616 23.16071483 -9.95456255 25.52240016 -11.171875 27.88476562 C-11.96319415 29.41684621 -12.75485051 30.94875268 -13.546875 32.48046875 C-13.90336121 33.17045456 -14.25984741 33.86044037 -14.62713623 34.57133484 C-17.67004722 40.42987916 -20.83657452 46.20038663 -24 52 C-14.76 52 -5.52 52 4 52 C4 52.33 4 52.66 4 53 C-6.23 53 -16.46 53 -27 53 C-23.5 46.1875 -23.5 46.1875 -22.39257812 44.05541992 C-20.93296765 41.1746751 -20 39.27087277 -20 36 C-19.03402672 34.96709361 -18.02998221 33.96909063 -17 33 C-15.5971977 30.51343519 -14.27285699 28.03439955 -12.98828125 25.48828125 C-12.61519333 24.76005661 -12.24210541 24.03183197 -11.85771179 23.28153992 C-10.67053824 20.96125638 -9.49143666 18.63697773 -8.3125 16.3125 C-7.50769074 14.7360578 -6.70235819 13.15988264 -5.89648438 11.58398438 C-3.9249102 7.72572544 -1.96056404 3.86386455 0 0 Z " fill="#696B6F" transform="translate(276,564)"/>
<path d="M0 0 C0.38195023 0.64874084 0.76390045 1.29748169 1.15742493 1.96588135 C2.83645835 4.22033664 2.83645835 4.22033664 5.48674011 4.51898193 C6.47491226 4.52786438 7.46308441 4.53674683 8.48120117 4.54589844 C9.60213669 4.56561707 10.7230722 4.58533569 11.87797546 4.60565186 C13.69214714 4.60749481 13.69214714 4.60749481 15.54296875 4.609375 C16.78170242 4.62591125 18.0204361 4.64244751 19.29670715 4.65948486 C22.58638111 4.69986788 25.87559728 4.72316064 29.16546631 4.73822021 C32.5238829 4.75778538 35.88201115 4.79975583 39.24023438 4.83984375 C45.82675276 4.9139053 52.41316233 4.96544422 59 5 C58.67 6.65 58.34 8.3 58 10 C57.505 8.515 57.505 8.515 57 7 C38.19 7 19.38 7 0 7 C-1 3 -1 3 0 0 Z " fill="#636669" transform="translate(675,587)"/>
<path d="M0 0 C-0.71027344 0.47050781 -1.42054688 0.94101562 -2.15234375 1.42578125 C-3.07144531 2.04839844 -3.99054687 2.67101562 -4.9375 3.3125 C-5.85402344 3.92738281 -6.77054688 4.54226563 -7.71484375 5.17578125 C-10.25778947 6.8664904 -10.25778947 6.8664904 -11 10 C-11.58239884 15.54658914 -11.58239884 15.54658914 -9.375 20.375 C-3.9617723 24.07878738 1.60562115 24.79031649 8 24 C14.21427589 22.60342819 18.04133691 20.60441426 21.625 15.25 C22.44327517 13.84853423 23.24491703 12.43649931 24 11 C24.67578125 12.75 24.67578125 12.75 25 15 C21.79618735 20.92184866 16.71103435 24.25993923 10.4765625 26.37890625 C3.68418869 28.08235647 -2.74868706 27.1375411 -9 24 C-11.95591281 21.85524466 -13.66736305 19.50923708 -14.47265625 15.85546875 C-14.81285557 10.73503285 -13.67947966 7.39280015 -10.4296875 3.4453125 C-6.93906619 -0.08345768 -4.76552161 -1.45081419 0 0 Z " fill="#285595" transform="translate(759,479)"/>
<path d="M0 0 C4.22738108 1.75109091 5.27280055 3.766871 7.12109375 7.796875 C9.73738739 14.35505105 10.45476629 20.99805126 11 28 C10.34 28 9.68 28 9 28 C9.03867187 28.94101562 9.07734375 29.88203125 9.1171875 30.8515625 C9.11469049 35.80813008 8.11260887 40.53501611 7.125 45.375 C6.95097656 46.28894531 6.77695312 47.20289063 6.59765625 48.14453125 C6.42363281 49.01207031 6.24960937 49.87960937 6.0703125 50.7734375 C5.91320801 51.56153809 5.75610352 52.34963867 5.59423828 53.16162109 C5.39813965 53.76828613 5.20204102 54.37495117 5 55 C4.01 55.495 4.01 55.495 3 56 C3.11657585 54.18693869 3.24378959 52.374561 3.375 50.5625 C3.44460938 49.55316406 3.51421875 48.54382813 3.5859375 47.50390625 C3.90697044 44.78724072 4.36707531 42.38641289 5.01953125 39.75 C6.20298208 34.62801186 6.33147189 29.67753579 6.3125 24.4375 C6.32861328 23.54353516 6.34472656 22.64957031 6.36132812 21.72851562 C6.3669256 14.07677235 4.91283343 8.08255567 0 2 C0 1.34 0 0.68 0 0 Z " fill="#737579" transform="translate(521,494)"/>
<path d="M0 0 C0.66 0 1.32 0 2 0 C0.59724373 4.594662 -1.27946052 8.78259238 -3.4921875 13.03125 C-3.83465012 13.69657242 -4.17711273 14.36189484 -4.529953 15.04737854 C-5.64033984 17.20068119 -6.7573491 19.35045995 -7.875 21.5 C-8.64128048 22.98099401 -9.40747463 24.46203269 -10.17358398 25.94311523 C-16.27976323 37.72175161 -22.55214714 49.40446303 -29 61 C-29.9089677 58.5287003 -30.14279623 57.37293302 -29.18652344 54.87548828 C-28.74856445 54.11478027 -28.31060547 53.35407227 -27.859375 52.5703125 C-27.37106201 51.7033374 -26.88274902 50.8363623 -26.37963867 49.94311523 C-25.84185791 49.01313721 -25.30407715 48.08315918 -24.75 47.125 C-23.63336355 45.14120776 -22.5201734 43.15547235 -21.41015625 41.16796875 C-20.84055176 40.14880371 -20.27094727 39.12963867 -19.68408203 38.07958984 C-17.05113303 33.26485822 -14.61288608 28.35924238 -12.1875 23.4375 C-8.28174007 15.53253757 -4.26617245 7.71696724 0 0 Z " fill="#6D6F73" transform="translate(309,501)"/>
<path d="M0 0 C0.66 0 1.32 0 2 0 C1.88426734 1.85476817 1.75691885 3.70881274 1.625 5.5625 C1.55539062 6.59503906 1.48578125 7.62757813 1.4140625 8.69140625 C1 12 1 12 -1 19 C26.72 19 54.44 19 83 19 C83 19.33 83 19.66 83 20 C54.62 20 26.24 20 -3 20 C-1.875 8.75 -1.875 8.75 -0.9375 4.375 C-0.76089844 3.53710938 -0.58429687 2.69921875 -0.40234375 1.8359375 C-0.26957031 1.23007812 -0.13679687 0.62421875 0 0 Z " fill="#6C6E72" transform="translate(643,596)"/>
<path d="M0 0 C2.29013653 3.4352048 2.17842973 4.985331 2 9 C3.12027588 8.99214478 3.12027588 8.99214478 4.26318359 8.98413086 C7.63378057 8.96339599 11.00436414 8.95035101 14.375 8.9375 C16.1384375 8.92493164 16.1384375 8.92493164 17.9375 8.91210938 C19.61972656 8.90727539 19.61972656 8.90727539 21.3359375 8.90234375 C22.89127197 8.89448853 22.89127197 8.89448853 24.47802734 8.88647461 C27 9 27 9 29 10 C29 7.03 29 4.06 29 1 C32.03333922 4.03333922 31.6646334 6.7743808 32 11 C31 12 31 12 28.04077148 12.11352539 C26.74727783 12.10828857 25.45378418 12.10305176 24.12109375 12.09765625 C23.09110008 12.09553383 23.09110008 12.09553383 22.04029846 12.09336853 C19.83932199 12.08775479 17.63844591 12.07520007 15.4375 12.0625 C13.94856917 12.05748676 12.45963676 12.05292355 10.97070312 12.04882812 C7.31376925 12.03778093 3.65689442 12.02050713 0 12 C0 8.04 0 4.08 0 0 Z " fill="#707174" transform="translate(350,606)"/>
<path d="M0 0 C7.96546555 0.35402069 12.66670615 2.32326542 18.1875 8.25 C24.89075588 16.64226524 24.748068 25.73895805 24 36 C23.51181396 39.71772448 22.86557048 43.3522387 22 47 C21.34 47 20.68 47 20 47 C20.0721875 46.3915625 20.144375 45.783125 20.21875 45.15625 C22.52390419 27.40157331 22.52390419 27.40157331 17 11 C16.45988281 10.47019531 15.91976563 9.94039063 15.36328125 9.39453125 C14 8 14 8 14 6 C13.175 5.731875 12.35 5.46375 11.5 5.1875 C7.63084439 3.87475078 3.82005706 2.44898716 0 1 C0 0.67 0 0.34 0 0 Z " fill="#6C7075" transform="translate(249,485)"/>
<path d="M0 0 C0 0.33 0 0.66 0 1 C-0.61182129 1.02505615 -1.22364258 1.0501123 -1.85400391 1.07592773 C-4.77768985 1.19595617 -7.70134505 1.31671906 -10.625 1.4375 C-11.70716797 1.48189209 -12.78933594 1.52628418 -13.90429688 1.57202148 C-19.24707401 1.79334066 -24.58889176 2.02391661 -29.9296875 2.2890625 C-40.63372162 2.81740502 -51.28174395 3.13820101 -62 3 C-58.32648214 0.7144363 -54.96631342 0.60636558 -50.69921875 0.3671875 C-49.6290728 0.30484421 -49.6290728 0.30484421 -48.53730774 0.24124146 C-47.02372043 0.15486964 -45.50988434 0.07276641 -43.99584961 -0.00537109 C-41.73289047 -0.12264766 -39.4710509 -0.25343742 -37.20898438 -0.38671875 C-24.80966358 -1.08977083 -12.33633199 -1.73141502 0 0 Z " fill="#28579A" transform="translate(513,347)"/>
<path d="M0 0 C16.5 0 33 0 50 0 C50 0.66 50 1.32 50 2 C33.03891695 3.70661052 15.99589699 2.64176647 -1 2 C-0.67 1.34 -0.34 0.68 0 0 Z " fill="#606165" transform="translate(183,577)"/>
<path d="M0 0 C0.78773804 0.00141495 1.57547607 0.0028299 2.38708496 0.00428772 C4.87268064 0.00983013 7.35818211 0.0223714 9.84375 0.03515625 C11.54166535 0.04017871 13.23958214 0.0447403 14.9375 0.04882812 C19.07295229 0.05978061 23.20833524 0.07700459 27.34375 0.09765625 C22.50543179 4.93597446 11.81030523 3.26090184 5.36328125 3.28320312 C4.64221191 3.28312256 3.92114258 3.28304199 3.17822266 3.28295898 C0.95326314 3.28517165 -1.27121994 3.30345217 -3.49609375 3.32226562 C-4.91145665 3.32519542 -6.32682188 3.32718298 -7.7421875 3.328125 C-9.0214209 3.33223389 -10.3006543 3.33634277 -11.61865234 3.34057617 C-14.65625 3.09765625 -14.65625 3.09765625 -16.65625 1.09765625 C-11.05397268 0.29772634 -5.65423115 -0.03911075 0 0 Z " fill="#6D6F72" transform="translate(446.65625,590.90234375)"/>
<path d="M0 0 C0.33 0 0.66 0 1 0 C1.17227534 5.69784736 0.68012361 10.66368817 -0.6875 16.1875 C-0.86611572 16.92218506 -1.04473145 17.65687012 -1.22875977 18.41381836 C-3.71776123 28.27248898 -6.9893561 37.71505841 -13 46 C-13.66 46 -14.32 46 -15 46 C-13.99817659 43.38386398 -12.93487703 40.87147285 -11.66796875 38.37109375 C-7.10635238 29.33211249 -4.77724966 20.15359146 -2.53710938 10.32568359 C-1.73934777 6.87137586 -0.87006042 3.43673866 0 0 Z " fill="#6E7073" transform="translate(523,551)"/>
<path d="M0 0 C-2.67819881 1.78546587 -4.69530882 2.64939285 -7.6875 3.6875 C-18.25688418 7.91833064 -22.56701761 14.77391562 -27 25 C-27.33 25 -27.66 25 -28 25 C-28.48396137 17.90533226 -25.50668233 14.21522836 -21 9 C-14.44991514 2.91857538 -9.1179264 -0.35756574 0 0 Z " fill="#245193" transform="translate(837,517)"/>
<path d="M0 0 C1.875 1.1875 1.875 1.1875 3 3 C2.9375 6.0625 2.9375 6.0625 2 9 C-0.0625 10.375 -0.0625 10.375 -2 11 C-1.67 10.2575 -1.34 9.515 -1 8.75 C0.22782871 5.86116688 0.22782871 5.86116688 0 2 C-4.34184202 2.18464366 -4.34184202 2.18464366 -8 4 C-8.04080783 5.99958364 -8.04254356 8.00045254 -8 10 C-6.35 10.33 -4.7 10.66 -3 11 C-3 11.66 -3 12.32 -3 13 C-6.71599191 13.20086443 -7.77208445 13.1519437 -11 11 C-12.1455904 8.44445219 -12.04201192 7.17224889 -11.375 4.4375 C-8.68685761 -0.32784332 -5.15814272 -1.90036837 0 0 Z " fill="#74777A" transform="translate(187,516)"/>
<path d="M0 0 C1.875 1.1875 1.875 1.1875 3 3 C2.92457105 6.54516066 2.36986838 8.4794445 0.3125 11.375 C-2.69805225 13.4905232 -4.39243301 13.53729721 -8 13 C-9.875 11.875 -9.875 11.875 -11 10 C-11.4375 7.0625 -11.4375 7.0625 -11 4 C-7.52388135 -0.287213 -5.34245003 -1.56364391 0 0 Z M-8 3 C-8.38063221 5.3260857 -8.71269945 7.66055264 -9 10 C-7.89350443 11.31534788 -7.89350443 11.31534788 -5.125 11.3125 C-1.9686098 11.30116943 -1.9686098 11.30116943 -0.0625 9.3125 C1.25960381 6.43497994 0.90991047 4.97788882 0 2 C-3.62326739 0.7922442 -4.64146369 1.45688872 -8 3 Z " fill="#717478" transform="translate(222,516)"/>
<path d="M0 0 C0.66 0.33 1.32 0.66 2 1 C0.53515625 2.39973958 -0.9296875 3.79947917 -2.39453125 5.19921875 C-4.11055617 6.99978039 -4.11055617 6.99978039 -5.39453125 9.4296875 C-7.22356582 12.35792289 -9.25247871 14.20158139 -11.875 16.4375 C-15.66153705 19.74795198 -18.93749343 23.01874146 -22 27 C-22.66 26.34 -23.32 25.68 -24 25 C-21.60557261 22.4361832 -19.20920507 19.87418756 -16.8125 17.3125 C-16.13896484 16.59126953 -15.46542969 15.87003906 -14.77148438 15.12695312 C-11.23968153 11.35395399 -7.68097796 7.62763045 -4 4 C-3.236875 3.236875 -2.47375 2.47375 -1.6875 1.6875 C-1.130625 1.130625 -0.57375 0.57375 0 0 Z " fill="#255496" transform="translate(255,415)"/>
<path d="M0 0 C0.33 0 0.66 0 1 0 C1.42278893 7.21498493 0.03819782 13.89483084 -1.45361328 20.9387207 C-1.8786551 22.95483735 -2.28568094 24.97405821 -2.69140625 26.99414062 C-3.08779297 28.89776367 -3.08779297 28.89776367 -3.4921875 30.83984375 C-3.73308105 31.99863037 -3.97397461 33.15741699 -4.22216797 34.35131836 C-4.47885254 35.2253833 -4.73553711 36.09944824 -5 37 C-5.99 37.495 -5.99 37.495 -7 38 C-6.44322254 29.61285113 -4.7559147 21.56841382 -2.9375 13.375 C-2.65248001 12.07172706 -2.36797132 10.76834219 -2.08398438 9.46484375 C-1.39432225 6.30876282 -0.69955412 3.15390034 0 0 Z " fill="#6B6E74" transform="translate(692,504)"/>
<path d="M0 0 C0.33 0.99 0.66 1.98 1 3 C-1.64 3 -4.28 3 -7 3 C-8.12516085 4.83284443 -8.12516085 4.83284443 -9 7 C-8.67 7.99 -8.34 8.98 -8 10 C-2.98464948 9.67039784 -2.98464948 9.67039784 1 7 C0.42655063 9.86724686 0.1385485 10.8614515 -2 13 C-5.375 13.5 -5.375 13.5 -9 13 C-13 8.28205128 -13 8.28205128 -13 5 C-12.34 5 -11.68 5 -11 5 C-10.71125 4.360625 -10.4225 3.72125 -10.125 3.0625 C-7.84966105 -1.10895475 -4.30949082 -0.07980539 0 0 Z " fill="#77797E" transform="translate(201,533)"/>
<path d="M0 0 C-0.52319824 0.29656494 -1.04639648 0.59312988 -1.58544922 0.89868164 C-14.78106197 8.33577171 -14.78106197 8.33577171 -27.28515625 16.85546875 C-29 18 -29 18 -31 18 C-29.82163374 14.46490122 -29.06883537 14.12571344 -25.9921875 12.22265625 C-25.16976563 11.70896484 -24.34734375 11.19527344 -23.5 10.66601562 C-22.63375 10.13685547 -21.7675 9.60769531 -20.875 9.0625 C-20.03195312 8.53720703 -19.18890625 8.01191406 -18.3203125 7.47070312 C-16.6614859 6.44166395 -14.99717079 5.42141289 -13.32714844 4.41064453 C-11.86166497 3.52231433 -10.4050582 2.61900349 -8.96191406 1.69482422 C-5.49156974 -0.46093959 -3.88808006 -1.28743327 0 0 Z " fill="#255294" transform="translate(330,363)"/>
<path d="M0 0 C6.46924031 0.26955168 10.37725895 2.48978003 15 7 C20.65751911 14.10624365 23.30704571 19.9421517 23 29 C22.67 29 22.34 29 22 29 C21.77957031 27.96552734 21.77957031 27.96552734 21.5546875 26.91015625 C19.20105287 17.04923873 15.32881466 9.99103089 6.90234375 4.15234375 C4.68242287 2.80762781 2.47887055 1.77464705 0 1 C0 0.67 0 0.34 0 0 Z " fill="#214D8E" transform="translate(855,518)"/>
<path d="M0 0 C0.33 0 0.66 0 1 0 C1.51224726 3.60253322 2.00746375 7.20722337 2.5 10.8125 C2.64308594 11.81732422 2.78617187 12.82214844 2.93359375 13.85742188 C3.84627462 20.61560643 4.18176284 27.18305219 4 34 C3.34 34 2.68 34 2 34 C2 31.03 2 28.06 2 25 C1.34 24.67 0.68 24.34 0 24 C0 16.08 0 8.16 0 0 Z " fill="#6B6D70" transform="translate(346,571)"/>
<path d="M0 0 C0.99 0.33 1.98 0.66 3 1 C-2.75 6 -2.75 6 -5 6 C-5 6.66 -5 7.32 -5 8 C-6.69903023 9.51740976 -8.46072723 10.965128 -10.25 12.375 C-13.05313312 14.59229313 -15.73701197 16.7305752 -18.234375 19.2890625 C-20 21 -20 21 -22 21 C-20.42314729 16.95337798 -17.54321628 14.44877081 -14.375 11.625 C-13.83883057 11.14256836 -13.30266113 10.66013672 -12.75024414 10.16308594 C-3.15861781 1.61355898 -3.15861781 1.61355898 0 0 Z " fill="#245294" transform="translate(280,393)"/>
<path d="M0 0 C3.21994092 1.40356399 4.81010146 2.72497452 6.8125 5.625 C9.66873029 13.74270715 7.50557161 21.02094754 5 29 C4.67 29 4.34 29 4 29 C4.04600342 28.42032471 4.09200684 27.84064941 4.1394043 27.2434082 C4.3393534 24.600752 4.51364044 21.95699547 4.6875 19.3125 C4.76033203 18.40048828 4.83316406 17.48847656 4.90820312 16.54882812 C5.22066212 11.49434437 5.42866048 8.07557755 2 4 C-0.06954847 2.21655822 -0.06954847 2.21655822 -2 1 C-1.34 0.67 -0.68 0.34 0 0 Z " fill="#74767A" transform="translate(235,509)"/>
<path d="M0 0 C0.33 0.66 0.66 1.32 1 2 C-0.07997169 4.28942228 -1.19257585 6.42971324 -2.4375 8.625 C-3.613125 10.72875 -4.78875 12.8325 -6 15 C3.24 15 12.48 15 22 15 C22 15.33 22 15.66 22 16 C11.77 16 1.54 16 -9 16 C-7.88625 13.73125 -6.7725 11.4625 -5.625 9.125 C-5.27775879 8.41230957 -4.93051758 7.69961914 -4.57275391 6.96533203 C-3.24781686 4.29175738 -2.123419 2.123419 0 0 Z " fill="#636466" transform="translate(258,601)"/>
<path d="M0 0 C1.05220515 2.68690918 1.07463611 3.79765709 0.05957031 6.54956055 C-0.42930664 7.48582275 -0.91818359 8.42208496 -1.421875 9.38671875 C-1.95296875 10.40701172 -2.4840625 11.42730469 -3.03125 12.47851562 C-3.5984375 13.53748047 -4.165625 14.59644531 -4.75 15.6875 C-5.57757813 17.29334961 -5.57757813 17.29334961 -6.421875 18.93164062 C-10.61003222 26.87001074 -10.61003222 26.87001074 -14 28 C-12.00751987 22.66225061 -9.34920414 17.67674091 -6.74609375 12.61914062 C-4.722773 8.99445389 -4.722773 8.99445389 -4 5 C-3.02149805 3.97895449 -2.02019573 2.9793879 -1 2 C-0.67 1.34 -0.34 0.68 0 0 Z " fill="#67686B" transform="translate(319,540)"/>
<path d="M0 0 C0.66 0 1.32 0 2 0 C3.47317858 10.74631163 4.28435784 21.14700916 4 32 C3.67 32 3.34 32 3 32 C2.49013736 28.35547656 1.99394154 24.70921254 1.5 21.0625 C1.35691406 20.04091797 1.21382813 19.01933594 1.06640625 17.96679688 C0.25419998 11.91392631 -0.15282396 6.10659056 0 0 Z " fill="#696B6E" transform="translate(367,512)"/>
<path d="M0 0 C0.598125 0.61875 1.19625 1.2375 1.8125 1.875 C1.4825 3.195 1.1525 4.515 0.8125 5.875 C0.02875 5.070625 -0.755 4.26625 -1.5625 3.4375 C-5.62341718 -0.52672867 -8.86770335 -0.40068429 -14.3125 -0.6875 C-15.06660156 -0.73068359 -15.82070313 -0.77386719 -16.59765625 -0.81835938 C-18.46071888 -0.9244832 -20.32408524 -1.02525001 -22.1875 -1.125 C-22.1875 -1.785 -22.1875 -2.445 -22.1875 -3.125 C-14.45522806 -4.58391923 -6.71803253 -4.47868836 0 0 Z " fill="#255393" transform="translate(782.1875,479.125)"/>
<path d="M0 0 C0.66 0.33 1.32 0.66 2 1 C-3.24037484 5.87896968 -10.84740922 10.32744927 -18.1875 10.3125 C-19.115625 10.209375 -20.04375 10.10625 -21 10 C-17.00044734 7.33363156 -12.72492956 5.96580751 -8.2265625 4.31640625 C-4.98826077 3.09881017 -4.98826077 3.09881017 -2.2109375 1.27734375 C-1.48132813 0.85582031 -0.75171875 0.43429687 0 0 Z " fill="#6B6C6F" transform="translate(499,605)"/>
<path d="M0 0 C0.33 0 0.66 0 1 0 C1.16335585 5.23419357 0.60552037 9.86306192 -0.5 14.9375 C-0.64308594 15.62134766 -0.78617188 16.30519531 -0.93359375 17.00976562 C-1.28283771 18.67449514 -1.64052946 20.33744875 -2 22 C-2.66 22 -3.32 22 -4 22 C-2.59836066 2.59836066 -2.59836066 2.59836066 0 0 Z " fill="#6D6E71" transform="translate(180,579)"/>
<path d="M0 0 C7.92 0 15.84 0 24 0 C24 0.66 24 1.32 24 2 C21.31300008 2.22366479 18.62656203 2.42927009 15.9375 2.625 C14.80924805 2.72167969 14.80924805 2.72167969 13.65820312 2.8203125 C8.60470937 3.17033804 4.78976864 2.66655961 0 1 C0 0.67 0 0.34 0 0 Z " fill="#68696D" transform="translate(209,577)"/>
<path d="M0 0 C0.33 0 0.66 0 1 0 C1.33 1.98 1.66 3.96 2 6 C5.465 5.505 5.465 5.505 9 5 C9.66 3.35 10.32 1.7 11 0 C11.66 0.33 12.32 0.66 13 1 C10.87452471 7.04942966 10.87452471 7.04942966 8 9 C4.81846974 9.39769128 2.87155972 9.55198782 0.125 7.8125 C-1.36366316 5.41409825 -1.29178308 3.77193929 -1 1 C-0.67 0.67 -0.34 0.34 0 0 Z " fill="#707376" transform="translate(173,537)"/>
<path d="M0 0 C0.97839844 0.41572266 0.97839844 0.41572266 1.9765625 0.83984375 C6.64303689 2.77388402 10.93022603 4.46633958 16 5 C16 5.66 16 6.32 16 7 C17.65 7 19.3 7 21 7 C21 7.33 21 7.66 21 8 C13.96323366 8.54128972 7.31322288 7.27277474 1 4 C0.15234375 1.859375 0.15234375 1.859375 0 0 Z " fill="#265695" transform="translate(744,506)"/>
<path d="M0 0 C0.99 0.33 1.98 0.66 3 1 C1.87926138 1.83905565 0.75325453 2.67107831 -0.375 3.5 C-1.31472656 4.19609375 -1.31472656 4.19609375 -2.2734375 4.90625 C-4 6 -4 6 -6 6 C-6 6.99 -6 7.98 -6 9 C-9.3 9 -12.6 9 -16 9 C-14.68 8.34 -13.36 7.68 -12 7 C-10.10004029 5.98686731 -8.20442636 4.96555611 -6.3125 3.9375 C-4.85263672 3.14666016 -4.85263672 3.14666016 -3.36328125 2.33984375 C-1.11512031 1.20391534 -1.11512031 1.20391534 0 0 Z " fill="#235293" transform="translate(782,504)"/>
<path d="M0 0 C0.66 0.66 1.32 1.32 2 2 C1.625 4.125 1.625 4.125 1 6 C0.34 5.01 -0.32 4.02 -1 3 C-4.56769552 2.26393501 -4.56769552 2.26393501 -8 2 C-8.66 4.31 -9.32 6.62 -10 9 C-10.33 9 -10.66 9 -11 9 C-11.36627907 3.50581395 -11.36627907 3.50581395 -9.6875 1.1875 C-6.25500469 -1.22795966 -3.88883162 -1.09684994 0 0 Z " fill="#74777B" transform="translate(205,516)"/>
<path d="M0 0 C4.95 0.33 9.9 0.66 15 1 C15 1.66 15 2.32 15 3 C10.05 3 5.1 3 0 3 C0 2.01 0 1.02 0 0 Z " fill="#28579A" transform="translate(839,515)"/>
<path d="M0 0 C0.703125 1.58203125 0.703125 1.58203125 1 4 C-0.328125 7.19921875 -0.328125 7.19921875 -2.25 10.6875 C-2.87390625 11.84636719 -3.4978125 13.00523437 -4.140625 14.19921875 C-6 17 -6 17 -9 18 C-9.33 17.34 -9.66 16.68 -10 16 C-9.58105469 15.64292969 -9.16210938 15.28585937 -8.73046875 14.91796875 C-6.39609411 12.33065961 -4.90615953 9.38337212 -3.3125 6.3125 C-2.99216797 5.70599609 -2.67183594 5.09949219 -2.34179688 4.47460938 C-1.55628516 2.98565434 -0.77747058 1.49316953 0 0 Z " fill="#6F7174" transform="translate(266,584)"/>
<path d="M0 0 C0.66 0 1.32 0 2 0 C1.57045059 6.25107435 0.98598493 12.04204521 -1 18 C-1.33 18 -1.66 18 -2 18 C-2.23268915 11.71739294 -1.40454548 6.11980533 0 0 Z " fill="#6E6F74" transform="translate(413,510)"/>
<path d="M0 0 C4.88752604 1.62917535 7.77989286 3.74280178 10.25 8.3125 C11.17217003 11.61694262 11.13387406 14.58621148 11 18 C10.67 18 10.34 18 10 18 C9.5978125 16.1746875 9.5978125 16.1746875 9.1875 14.3125 C7.60747561 8.08018159 4.66031234 4.40840357 0 0 Z " fill="#6A6C6F" transform="translate(489,510)"/>
<path d="M0 0 C4.24332412 1.74725111 5.36680113 3.85940242 7.25 7.890625 C8.23720136 10.66712882 8.29151293 13.08487068 8 16 C5.92191323 13.92191323 5.4694445 12.84070953 4.5625 10.125 C3.43624297 6.95309244 2.12696088 4.63338013 0 2 C0 1.34 0 0.68 0 0 Z " fill="#6B6D71" transform="translate(521,494)"/>
<path d="M0 0 C8.07861415 -0.09579384 15.98340366 -0.12513633 24 1 C24 1.33 24 1.66 24 2 C15.585 2.495 15.585 2.495 7 3 C7 2.34 7 1.68 7 1 C4.69 1 2.38 1 0 1 C0 0.67 0 0.34 0 0 Z " fill="#1E4E96" transform="translate(489,346)"/>
<path d="M0 0 C0.33 0 0.66 0 1 0 C0.51679152 6.2054142 -0.33318124 11.99945246 -2 18 C-2.33 18 -2.66 18 -3 18 C-3.21586845 12.06361776 -2.71249434 6.71248111 -1 1 C-0.67 0.67 -0.34 0.34 0 0 Z " fill="#6B6D71" transform="translate(534,579)"/>
<path d="M0 0 C1.32 0.66 2.64 1.32 4 2 C3.67 2.99 3.34 3.98 3 5 C-0.96 4.67 -4.92 4.34 -9 4 C-9 3.34 -9 2.68 -9 2 C-6.03 2 -3.06 2 0 2 C0 1.34 0 0.68 0 0 Z " fill="#325C98" transform="translate(771,462)"/>
<path d="M0 0 C0.66 0 1.32 0 2 0 C1.45276317 3.37462715 0.9451 5.08235 -1 8 C-1.66 8 -2.32 8 -3 8 C-3 8.66 -3 9.32 -3 10 C-4.98 10.66 -6.96 11.32 -9 12 C-9 11.34 -9 10.68 -9 10 C-8.071875 9.4225 -7.14375 8.845 -6.1875 8.25 C-2.69157513 5.78228833 -1.5966213 3.90285207 0 0 Z " fill="#6F7174" transform="translate(237,539)"/>
<path d="M0 0 C6.38342541 0.60220994 6.38342541 0.60220994 8.9375 2.25 C10.35440053 4.58371852 10.21718696 6.32136078 10 9 C8 8 8 8 7.3125 6.0625 C6.04208728 3.59365982 6.04208728 3.59365982 2.375 2.75 C0.704375 2.37875 0.704375 2.37875 -1 2 C-0.67 1.34 -0.34 0.68 0 0 Z " fill="#265598" transform="translate(840,543)"/>
<path d="M0 0 C1.32 0.66 2.64 1.32 4 2 C4 4.97 4 7.94 4 11 C3.34 10.67 2.68 10.34 2 10 C1.375 6.9375 1.375 6.9375 1 4 C0.67 4.66 0.34 5.32 0 6 C-0.66 6 -1.32 6 -2 6 C-1.34 4.02 -0.68 2.04 0 0 Z " fill="#6E7073" transform="translate(336,507)"/>
<path d="M0 0 C3.33443658 1.45347236 4.8312725 2.73818147 6.8125 5.8125 C8.0471145 9.12646523 8.25021608 11.49697485 8 15 C6.84071088 12.68142176 5.72737401 10.37685487 4.6875 8 C2.86332823 4.75702796 1.01947833 3.12179558 -2 1 C-1.34 0.67 -0.68 0.34 0 0 Z " fill="#6E7074" transform="translate(235,509)"/>
<path d="M0 0 C0.66 0 1.32 0 2 0 C0.55069329 3.59584747 -1.22752078 5.18832656 -4.4375 7.3125 C-5.21996094 7.84488281 -6.00242188 8.37726562 -6.80859375 8.92578125 C-9 10 -9 10 -12 9 C-10.56542672 8.0165504 -9.12722594 7.03839079 -7.6875 6.0625 C-6.88699219 5.51722656 -6.08648437 4.97195313 -5.26171875 4.41015625 C-3 3 -3 3 0 2 C0 1.34 0 0.68 0 0 Z " fill="#6D6E72" transform="translate(254,565)"/>
<path d="M0 0 C1.35439668 2.70879335 1.06501451 5.00933268 1 8 C2.98 8 4.96 8 7 8 C7 8.66 7 9.32 7 10 C1.375 10.25 1.375 10.25 -2 8 C-1.125 1.125 -1.125 1.125 0 0 Z " fill="#707377" transform="translate(209,536)"/>
<path d="M0 0 C0.68359375 1.640625 0.68359375 1.640625 1 4 C-0.21484375 6.796875 -0.21484375 6.796875 -1.9375 9.75 C-2.50339844 10.73484375 -3.06929688 11.7196875 -3.65234375 12.734375 C-4.09707031 13.48203125 -4.54179687 14.2296875 -5 15 C-5.68359375 13.359375 -5.68359375 13.359375 -6 11 C-4.78515625 8.203125 -4.78515625 8.203125 -3.0625 5.25 C-2.49660156 4.26515625 -1.93070312 3.2803125 -1.34765625 2.265625 C-0.90292969 1.51796875 -0.45820313 0.7703125 0 0 Z " fill="#6A6E73" transform="translate(318,484)"/>
<path d="M0 0 C1.98 0.495 1.98 0.495 4 1 C3.54554036 2.41791408 3.08625056 3.83428046 2.625 5.25 C2.36976563 6.03890625 2.11453125 6.8278125 1.8515625 7.640625 C1.04826333 9.86627958 0.10288338 11.90931672 -1 14 C-1.18451025 4.58997722 -1.18451025 4.58997722 0 0 Z " fill="#6D6E72" transform="translate(155,551)"/>
<path d="M0 0 C0.33 0 0.66 0 1 0 C1.20674944 5.78898419 0.59162079 10.42932723 -1 16 C-1.66 15.67 -2.32 15.34 -3 15 C-2.01 10.05 -1.02 5.1 0 0 Z " fill="#6B6C70" transform="translate(623,600)"/>
<path d="M0 0 C1.0169313 2.65498232 1.13022151 3.69155375 0.00390625 6.359375 C-0.47175781 7.14828125 -0.94742187 7.9371875 -1.4375 8.75 C-1.91058594 9.54921875 -2.38367188 10.3484375 -2.87109375 11.171875 C-3.24363281 11.77515625 -3.61617188 12.3784375 -4 13 C-4.66 13 -5.32 13 -6 13 C-4.58707905 8.1725201 -2.57025846 4.2837641 0 0 Z " fill="#686A6E" transform="translate(292,592)"/>
<path d="M0 0 C0.33 0 0.66 0 1 0 C0.88570603 1.77155654 0.75816963 3.54226229 0.625 5.3125 C0.52058594 6.79169922 0.52058594 6.79169922 0.4140625 8.30078125 C0 11 0 11 -2 14 C-2.3690205 4.58997722 -2.3690205 4.58997722 0 0 Z " fill="#6D6F72" transform="translate(403,563)"/>
<path d="M0 0 C0.33 0.99 0.66 1.98 1 3 C-0.98567708 2.93489583 -2.97135417 2.86979167 -4.95703125 2.8046875 C-7.31359719 2.86745538 -7.31359719 2.86745538 -10 5 C-9.625 3.0625 -9.625 3.0625 -9 1 C-6.04335481 -0.4783226 -3.25770263 -0.06032783 0 0 Z " fill="#6C7074" transform="translate(201,533)"/>
<path d="M0 0 C0.556875 0.70125 1.11375 1.4025 1.6875 2.125 C4.09124732 5.11344261 6.53810432 8.05940238 9 11 C5.58217544 10.74682781 4.72255923 9.71625376 2.25 7.1875 C0 4 0 4 0 0 Z " fill="#255190" transform="translate(746,511)"/>
<path d="M0 0 C0.66 0 1.32 0 2 0 C1.03644647 9.41002278 1.03644647 9.41002278 0 14 C-0.33 14 -0.66 14 -1 14 C-1.18451025 4.58997722 -1.18451025 4.58997722 0 0 Z " fill="#6E6F72" transform="translate(495,541)"/>
<path d="M0 0 C3.3 0 6.6 0 10 0 C9.67 1.32 9.34 2.64 9 4 C8.67 3.34 8.34 2.68 8 2 C5.03 2 2.06 2 -1 2 C-0.67 1.34 -0.34 0.68 0 0 Z " fill="#77797C" transform="translate(623,537)"/>
<path d="M0 0 C0.75 1.5625 0.75 1.5625 1 4 C-0.13084437 6.50286409 -1.52139516 8.67007722 -3 11 C-3.66 11 -4.32 11 -5 11 C-3.77472971 6.94718288 -2.30119506 3.55639236 0 0 Z " fill="#686A6D" transform="translate(332,515)"/>
<path d="M0 0 C0.33 0 0.66 0 1 0 C1.14285714 7.42857143 1.14285714 7.42857143 0 11 C-0.66 11 -1.32 11 -2 11 C-1.85957123 9.35369672 -1.71250671 7.70795821 -1.5625 6.0625 C-1.48128906 5.14597656 -1.40007812 4.22945313 -1.31640625 3.28515625 C-1 1 -1 1 0 0 Z " fill="#6F7175" transform="translate(168,498)"/>
<path d="M0 0 C0.68359375 1.765625 0.68359375 1.765625 1 4 C-0.21484375 5.921875 -0.21484375 5.921875 -1.9375 7.75 C-2.50339844 8.36359375 -3.06929687 8.9771875 -3.65234375 9.609375 C-4.31943359 10.29773438 -4.31943359 10.29773438 -5 11 C-5.99 10.67 -6.98 10.34 -8 10 C-7.236875 9.278125 -6.47375 8.55625 -5.6875 7.8125 C-3.28866409 5.30209033 -1.64589779 3.03191698 0 0 Z " fill="#214F8E" transform="translate(783,490)"/>
<path d="M0 0 C-1.44077046 3.36179774 -3.24750021 5.59156268 -6 8 C-6.66 8 -7.32 8 -8 8 C-6.48291727 4.46014029 -4.24676932 0 0 0 Z " fill="#275697" transform="translate(276,437)"/>
<path d="M0 0 C3.87132028 0.57352893 6.08172796 2.48704352 9 5 C8.67 5.99 8.34 6.98 8 8 C6.66372225 6.85760183 5.33104612 5.71098945 4 4.5625 C3.2575 3.92441406 2.515 3.28632813 1.75 2.62890625 C1.1725 2.09136719 0.595 1.55382812 0 1 C0 0.67 0 0.34 0 0 Z " fill="#2C599B" transform="translate(693,423)"/>
<path d="M0 0 C1.5625 1.5625 1.5625 1.5625 3 4 C2.6875 7.75 2.6875 7.75 2 11 C1.01 10.34 0.02 9.68 -1 9 C-0.67 6.03 -0.34 3.06 0 0 Z " fill="#85878B" transform="translate(440,516)"/>
<path d="M0 0 C0.66 0 1.32 0 2 0 C0.68775452 3.93673644 -0.91910327 6.22719294 -4 9 C-3.35494404 5.51669784 -2.01782732 2.90567134 0 0 Z " fill="#6C6E71" transform="translate(486,577)"/>
<path d="M0 0 C0.6875 1.625 0.6875 1.625 1 4 C-0.4375 7.25 -0.4375 7.25 -2 10 C-4 7 -4 7 -4 5 C-3.02149805 3.97895449 -2.02019573 2.9793879 -1 2 C-0.67 1.34 -0.34 0.68 0 0 Z " fill="#737478" transform="translate(319,540)"/>
<path d="M0 0 C4.66154042 1.49835228 5.86610751 4.88463591 8 9 C3.33845958 7.50164772 2.13389249 4.11536409 0 0 Z " fill="#214D8C" transform="translate(764,453)"/>
<path d="M0 0 C0.99 0.33 1.98 0.66 3 1 C0.69 2.65 -1.62 4.3 -4 6 C-4 5.01 -4 4.02 -4 3 C-2.1875 1.25 -2.1875 1.25 0 0 Z " fill="#235192" transform="translate(289,386)"/>
<path d="M0 0 C0.33 0.66 0.66 1.32 1 2 C1.99 2.33 2.98 2.66 4 3 C4 3.66 4 4.32 4 5 C2.35 5 0.7 5 -1 5 C-1.33 4.01 -1.66 3.02 -2 2 C-1.34 2 -0.68 2 0 2 C0 1.34 0 0.68 0 0 Z " fill="#787A7E" transform="translate(428,589)"/>
<path d="M0 0 C0.33 0.99 0.66 1.98 1 3 C-0.4375 5.6875 -0.4375 5.6875 -2 8 C-2.99 7.67 -3.98 7.34 -5 7 C-3.35 4.69 -1.7 2.38 0 0 Z " fill="#68696D" transform="translate(261,556)"/>
<path d="M0 0 C0.66 0 1.32 0 2 0 C0.90931332 3.77545388 0.0916909 6.47043472 -3 9 C-2.44271087 5.65626525 -1.64826111 2.96687001 0 0 Z " fill="#67696C" transform="translate(282,553)"/>
<path d="M0 0 C0 0.66 0 1.32 0 2 C-3.98196457 3.05404945 -6.98195309 2.84098656 -11 2 C-11 1.67 -11 1.34 -11 1 C-7.27569643 0.30710631 -3.78916254 -0.11144596 0 0 Z " fill="#3263A6" transform="translate(785,537)"/>
<path d="M0 0 C0 0.66 0 1.32 0 2 C-2.64 2.99 -5.28 3.98 -8 5 C-5.96115496 0.48541456 -5.19128917 0 0 0 Z " fill="#777A7D" transform="translate(180,533)"/>
<path d="M0 0 C0 0.66 0 1.32 0 2 C-0.66 2 -1.32 2 -2 2 C-2.66 4.31 -3.32 6.62 -4 9 C-4.33 9 -4.66 9 -5 9 C-5.36666667 3.5 -5.36666667 3.5 -3.625 1.125 C-2 0 -2 0 0 0 Z " fill="#6D6F74" transform="translate(199,516)"/>
<path d="M0 0 C1.65 0 3.3 0 5 0 C5 0.33 5 0.66 5 1 C3.35 1 1.7 1 0 1 C0 0.67 0 0.34 0 0 Z " fill="#898C8F" transform="translate(168,549)"/>
<path d="M0 0 C0.33 0.66 0.66 1.32 1 2 C0.01 1.67 -0.98 1.34 -2 1 C-1.34 0.67 -0.68 0.34 0 0 Z " fill="#8A8D91" transform="translate(205,541)"/>
<path d="M0 0 C4 1 4 1 4 1 Z " fill="#3E71B6" transform="translate(522,351)"/>
<path d="M0 0 C4 1 4 1 4 1 Z " fill="#3D70B4" transform="translate(473,350)"/>
<path d="M0 0 C3 1 3 1 3 1 Z " fill="#8A8B90" transform="translate(213,549)"/>
<path d="M0 0 C3 1 3 1 3 1 Z " fill="#8A8C90" transform="translate(203,549)"/>
<path d="M0 0 C3 1 3 1 3 1 Z " fill="#8B8D91" transform="translate(175,549)"/>
<path d="M0 0 C0.99 0.495 0.99 0.495 2 1 C1.01 1.495 1.01 1.495 0 2 C0 1.34 0 0.68 0 0 Z " fill="#4A79B6" transform="translate(754,525)"/>
<path d="M0 0 C3 1 3 1 3 1 Z " fill="#8C8F92" transform="translate(229,511)"/>
<path d="M0 0 C3 1 3 1 3 1 Z " fill="#4072B1" transform="translate(440,320)"/>
<path d="" fill="#8C8C8F" transform="translate(0,0)"/>
<path d="M0 0 C2 1 2 1 2 1 Z " fill="#8B8C90" transform="translate(228,580)"/>
<path d="" fill="#888A8D" transform="translate(0,0)"/>
<path d="" fill="#8A8D90" transform="translate(0,0)"/>
<path d="" fill="#8A8D90" transform="translate(0,0)"/>
<path d="" fill="#8B8E91" transform="translate(0,0)"/>
<path d="" fill="#8E9096" transform="translate(0,0)"/>
<path d="" fill="#8B8E92" transform="translate(0,0)"/>
<path d="" fill="#8D8F92" transform="translate(0,0)"/>
<path d="" fill="#868C96" transform="translate(0,0)"/>
<path d="M0 0 C2 1 2 1 2 1 Z " fill="#8E9095" transform="translate(212,511)"/>
<path d="M0 0 C2 1 2 1 2 1 Z " fill="#4678B4" transform="translate(758,507)"/>
<path d="M0 0 C2 1 2 1 2 1 Z " fill="#868B93" transform="translate(361,481)"/>
<path d="M0 0 C2 1 2 1 2 1 Z " fill="#4575B4" transform="translate(715,446)"/>
<path d="M0 0 C2 1 2 1 2 1 Z " fill="#4372B2" transform="translate(606,372)"/>
<path d="M0 0 C2 1 2 1 2 1 Z " fill="#3F70B3" transform="translate(564,358)"/>
<path d="M0 0 C2 1 2 1 2 1 Z " fill="#3D6BAC" transform="translate(341,352)"/>
<path d="M0 0 C2 1 2 1 2 1 Z " fill="#3A6AAA" transform="translate(606,336)"/>
<path d="" fill="#454545" transform="translate(0,0)"/>
<path d="" fill="#41699F" transform="translate(0,0)"/>
<path d="" fill="#3F69A4" transform="translate(0,0)"/>
<path d="" fill="#406AA3" transform="translate(0,0)"/>
<path d="" fill="#416BA4" transform="translate(0,0)"/>
<path d="" fill="#446FA8" transform="translate(0,0)"/>
<path d="" fill="#4970A6" transform="translate(0,0)"/>
<path d="" fill="#88898C" transform="translate(0,0)"/>
<path d="" fill="#888A8B" transform="translate(0,0)"/>
<path d="" fill="#888A8D" transform="translate(0,0)"/>
<path d="" fill="#87888A" transform="translate(0,0)"/>
<path d="" fill="#88888A" transform="translate(0,0)"/>
<path d="" fill="#89898B" transform="translate(0,0)"/>
<path d="" fill="#89888B" transform="translate(0,0)"/>
<path d="" fill="#86888B" transform="translate(0,0)"/>
<path d="" fill="#89898C" transform="translate(0,0)"/>
<path d="" fill="#89888A" transform="translate(0,0)"/>
<path d="" fill="#858789" transform="translate(0,0)"/>
<path d="" fill="#868789" transform="translate(0,0)"/>
<path d="" fill="#87878A" transform="translate(0,0)"/>
<path d="" fill="#838586" transform="translate(0,0)"/>
<path d="" fill="#848688" transform="translate(0,0)"/>
<path d="" fill="#8B8C8E" transform="translate(0,0)"/>
<path d="" fill="#888A8C" transform="translate(0,0)"/>
<path d="" fill="#898B8E" transform="translate(0,0)"/>
<path d="" fill="#8A888D" transform="translate(0,0)"/>
<path d="" fill="#898B8E" transform="translate(0,0)"/>
<path d="" fill="#84868A" transform="translate(0,0)"/>
<path d="" fill="#7C8791" transform="translate(0,0)"/>
<path d="" fill="#8A8B8F" transform="translate(0,0)"/>
<path d="" fill="#8A8991" transform="translate(0,0)"/>
<path d="" fill="#87898D" transform="translate(0,0)"/>
<path d="" fill="#808893" transform="translate(0,0)"/>
<path d="" fill="#8B8E91" transform="translate(0,0)"/>
<path d="" fill="#8C8F93" transform="translate(0,0)"/>
<path d="" fill="#8E8F92" transform="translate(0,0)"/>
<path d="" fill="#898C8F" transform="translate(0,0)"/>
<path d="" fill="#8C8F91" transform="translate(0,0)"/>
<path d="" fill="#888B8D" transform="translate(0,0)"/>
<path d="" fill="#8C8B8F" transform="translate(0,0)"/>
<path d="" fill="#8B8E94" transform="translate(0,0)"/>
<path d="" fill="#8D9192" transform="translate(0,0)"/>
<path d="" fill="#8C8D90" transform="translate(0,0)"/>
<path d="" fill="#8C8E90" transform="translate(0,0)"/>
<path d="" fill="#8C8C91" transform="translate(0,0)"/>
<path d="" fill="#898B8E" transform="translate(0,0)"/>
<path d="" fill="#8B8D91" transform="translate(0,0)"/>
<path d="" fill="#8E9092" transform="translate(0,0)"/>
<path d="" fill="#8A8D90" transform="translate(0,0)"/>
<path d="" fill="#8E9094" transform="translate(0,0)"/>
<path d="" fill="#8F9094" transform="translate(0,0)"/>
<path d="" fill="#8F8F93" transform="translate(0,0)"/>
<path d="" fill="#89898D" transform="translate(0,0)"/>
<path d="" fill="#8A8D90" transform="translate(0,0)"/>
<path d="" fill="#8B8E91" transform="translate(0,0)"/>
<path d="" fill="#8A8C8F" transform="translate(0,0)"/>
<path d="" fill="#8C8E91" transform="translate(0,0)"/>
<path d="" fill="#909095" transform="translate(0,0)"/>
<path d="" fill="#8F9296" transform="translate(0,0)"/>
<path d="" fill="#4071B6" transform="translate(0,0)"/>
<path d="" fill="#8F9395" transform="translate(0,0)"/>
<path d="" fill="#8C8D91" transform="translate(0,0)"/>
<path d="" fill="#8C8E93" transform="translate(0,0)"/>
<path d="" fill="#8B8D90" transform="translate(0,0)"/>
<path d="" fill="#8E9094" transform="translate(0,0)"/>
<path d="" fill="#8E9295" transform="translate(0,0)"/>
<path d="" fill="#8D8F93" transform="translate(0,0)"/>
<path d="" fill="#8D8D91" transform="translate(0,0)"/>
<path d="" fill="#888C92" transform="translate(0,0)"/>
<path d="" fill="#8C9093" transform="translate(0,0)"/>
<path d="" fill="#8D9192" transform="translate(0,0)"/>
<path d="" fill="#8B8E90" transform="translate(0,0)"/>
<path d="" fill="#4475B3" transform="translate(0,0)"/>
<path d="" fill="#416CAC" transform="translate(0,0)"/>
<path d="" fill="#4472B3" transform="translate(0,0)"/>
<path d="" fill="#8F9093" transform="translate(0,0)"/>
<path d="" fill="#8B9092" transform="translate(0,0)"/>
<path d="" fill="#8F9194" transform="translate(0,0)"/>
<path d="" fill="#909294" transform="translate(0,0)"/>
<path d="" fill="#8B8D94" transform="translate(0,0)"/>
<path d="" fill="#8E8F93" transform="translate(0,0)"/>
<path d="" fill="#8E9093" transform="translate(0,0)"/>
<path d="" fill="#8E9196" transform="translate(0,0)"/>
<path d="" fill="#8D8D93" transform="translate(0,0)"/>
<path d="" fill="#8B9194" transform="translate(0,0)"/>
<path d="" fill="#3F6AA8" transform="translate(0,0)"/>
<path d="" fill="#8E9194" transform="translate(0,0)"/>
<path d="" fill="#8D8F94" transform="translate(0,0)"/>
<path d="" fill="#4776B2" transform="translate(0,0)"/>
<path d="" fill="#4A77B7" transform="translate(0,0)"/>
<path d="" fill="#4B77B5" transform="translate(0,0)"/>
<path d="" fill="#4E7CB6" transform="translate(0,0)"/>
<path d="" fill="#909396" transform="translate(0,0)"/>
<path d="" fill="#8F9195" transform="translate(0,0)"/>
<path d="" fill="#8F9195" transform="translate(0,0)"/>
<path d="" fill="#4472B2" transform="translate(0,0)"/>
<path d="" fill="#8F9095" transform="translate(0,0)"/>
<path d="" fill="#8E9196" transform="translate(0,0)"/>
<path d="" fill="#8F9195" transform="translate(0,0)"/>
<path d="" fill="#8D9094" transform="translate(0,0)"/>
<path d="" fill="#8F9194" transform="translate(0,0)"/>
<path d="" fill="#8F9396" transform="translate(0,0)"/>
<path d="" fill="#919398" transform="translate(0,0)"/>
<path d="" fill="#949498" transform="translate(0,0)"/>
<path d="" fill="#949399" transform="translate(0,0)"/>
<path d="" fill="#939598" transform="translate(0,0)"/>
<path d="" fill="#909196" transform="translate(0,0)"/>
<path d="" fill="#919396" transform="translate(0,0)"/>
<path d="" fill="#909294" transform="translate(0,0)"/>
<path d="" fill="#8F9294" transform="translate(0,0)"/>
<path d="" fill="#8E9093" transform="translate(0,0)"/>
<path d="" fill="#8F8F93" transform="translate(0,0)"/>
<path d="" fill="#909395" transform="translate(0,0)"/>
<path d="" fill="#909093" transform="translate(0,0)"/>
<path d="" fill="#4578B6" transform="translate(0,0)"/>
<path d="" fill="#4477B5" transform="translate(0,0)"/>
<path d="" fill="#4376BA" transform="translate(0,0)"/>
<path d="" fill="#898E97" transform="translate(0,0)"/>
<path d="" fill="#8C8F94" transform="translate(0,0)"/>
<path d="" fill="#557EB1" transform="translate(0,0)"/>
<path d="" fill="#87898D" transform="translate(0,0)"/>
<path d="" fill="#4175B5" transform="translate(0,0)"/>
<path d="" fill="#4175B4" transform="translate(0,0)"/>
<path d="" fill="#4378B8" transform="translate(0,0)"/>
<path d="" fill="#4472AE" transform="translate(0,0)"/>
<path d="" fill="#4A77B0" transform="translate(0,0)"/>
<path d="" fill="#8A8F95" transform="translate(0,0)"/>
<path d="" fill="#8C9093" transform="translate(0,0)"/>
<path d="" fill="#898E96" transform="translate(0,0)"/>
<path d="" fill="#86888F" transform="translate(0,0)"/>
<path d="" fill="#878D97" transform="translate(0,0)"/>
<path d="" fill="#8D8F94" transform="translate(0,0)"/>
<path d="" fill="#888D94" transform="translate(0,0)"/>
<path d="" fill="#808B9F" transform="translate(0,0)"/>
<path d="" fill="#4271B1" transform="translate(0,0)"/>
<path d="" fill="#4372B0" transform="translate(0,0)"/>
<path d="" fill="#4472AF" transform="translate(0,0)"/>
<path d="" fill="#4472B1" transform="translate(0,0)"/>
<path d="" fill="#496FA8" transform="translate(0,0)"/>
<path d="" fill="#4975AE" transform="translate(0,0)"/>
<path d="" fill="#4672B5" transform="translate(0,0)"/>
<path d="" fill="#4572B4" transform="translate(0,0)"/>
<path d="" fill="#4675B7" transform="translate(0,0)"/>
<path d="" fill="#3E6DAB" transform="translate(0,0)"/>
<path d="" fill="#4472B2" transform="translate(0,0)"/>
<path d="" fill="#4676B4" transform="translate(0,0)"/>
<path d="" fill="#426FAC" transform="translate(0,0)"/>
<path d="" fill="#4577B4" transform="translate(0,0)"/>
<path d="" fill="#406FAF" transform="translate(0,0)"/>
<path d="" fill="#4172B1" transform="translate(0,0)"/>
<path d="" fill="#3C6DB1" transform="translate(0,0)"/>
<path d="" fill="#3F6EB0" transform="translate(0,0)"/>
<path d="" fill="#4172B0" transform="translate(0,0)"/>
<path d="" fill="#4574B2" transform="translate(0,0)"/>
<path d="" fill="#4271B2" transform="translate(0,0)"/>
<path d="" fill="#4271B3" transform="translate(0,0)"/>
<path d="" fill="#3F6EAC" transform="translate(0,0)"/>
<path d="" fill="#4674B5" transform="translate(0,0)"/>
<path d="" fill="#4472B3" transform="translate(0,0)"/>
<path d="" fill="#4271B0" transform="translate(0,0)"/>
<path d="" fill="#3F6DB1" transform="translate(0,0)"/>
<path d="" fill="#3F71AB" transform="translate(0,0)"/>
<path d="" fill="#3F6EAC" transform="translate(0,0)"/>
<path d="" fill="#4276B7" transform="translate(0,0)"/>
<path d="" fill="#4273B3" transform="translate(0,0)"/>
<path d="" fill="#3E6DAE" transform="translate(0,0)"/>
<path d="" fill="#3F73B6" transform="translate(0,0)"/>
<path d="" fill="#3E71B5" transform="translate(0,0)"/>
<path d="" fill="#4271B5" transform="translate(0,0)"/>
<path d="" fill="#3D6DAF" transform="translate(0,0)"/>
<path d="" fill="#3C6CAE" transform="translate(0,0)"/>
<path d="" fill="#3D6CAD" transform="translate(0,0)"/>
<path d="" fill="#3B6BAE" transform="translate(0,0)"/>
<path d="" fill="#3C70B7" transform="translate(0,0)"/>
<path d="" fill="#3E71B9" transform="translate(0,0)"/>
<path d="" fill="#3D6FB3" transform="translate(0,0)"/>
<path d="" fill="#4070B6" transform="translate(0,0)"/>
<path d="" fill="#4071B5" transform="translate(0,0)"/>
<path d="" fill="#4270AF" transform="translate(0,0)"/>
<path d="" fill="#4571AC" transform="translate(0,0)"/>
<path d="" fill="#416DAD" transform="translate(0,0)"/>
<path d="" fill="#3A6CAD" transform="translate(0,0)"/>
<path d="" fill="#396AAC" transform="translate(0,0)"/>
<path d="" fill="#4270AF" transform="translate(0,0)"/>
<path d="" fill="#406FAE" transform="translate(0,0)"/>
<path d="" fill="#3D70B0" transform="translate(0,0)"/>
<path d="" fill="#3B6CAD" transform="translate(0,0)"/>
<path d="" fill="#3F71B1" transform="translate(0,0)"/>
</svg>
